<?xml version="1.0" encoding="utf-8"?>
<!-- Generator: Adobe Illustrator 24.3.0, SVG Export Plug-In . SVG Version: 6.00 Build 0)  -->
<svg version="1.1" id="Calque_1" xmlns="http://www.w3.org/2000/svg" xmlns:xlink="http://www.w3.org/1999/xlink" x="0px" y="0px" width="92mm" height="31mm"
	 viewBox="0 0 260.8 87.9" style="enable-background:new 0 0 260.8 87.9;" xml:space="preserve">
<style type="text/css">
	.st0{fill:#202020;}
	.st1{fill:#019382;}
</style>
<path class="st0" d="M21.8,39.3V3.6h7.3v13.5c1-1.5,3.7-2.9,7.1-2.9c7.1,0,11.4,5.4,11.4,12.8c0,7.5-4.8,12.9-11.7,12.9
	c-3.3,0-5.8-1.4-6.9-3.3v2.8H21.8z M34.6,20.9c-2.9,0-5.6,1.9-5.6,6.1c0,4,2.7,6.1,5.6,6.1c2.9,0,5.5-2,5.5-6.1
	C40.1,22.9,37.5,20.9,34.6,20.9z"/>
<path class="st0" d="M74.1,21.9c-1.2,4.2-5.1,7.8-11.3,7.8c-6.7,0-12.8-4.8-12.8-13.1c0-7.9,5.9-12.9,12.2-12.9
	c7.6,0,12.3,4.7,12.3,12.6c0,1-0.1,2.2-0.1,2.3h-17c0.1,2.8,2.7,4.7,5.6,4.7c2.7,0,4.2-1.3,4.9-3.2L74.1,21.9z M67.3,13.8
	c-0.1-1.9-1.4-4.1-4.9-4.1c-3.2,0-4.7,2.3-4.9,4.1H67.3z"/>
<path class="st0" d="M29,59.6l5.8-0.9c1.3-0.2,1.8-0.8,1.8-1.7c0-1.4-1.2-2.7-3.6-2.7c-2.6,0-4,1.8-4.2,3.6l-6.5-1.3
	c0.3-3.5,3.5-8.1,10.7-8.1c7.9,0,10.8,4.4,10.8,9.5v12c0,1.9,0.2,3.5,0.3,3.8h-6.7c0-0.2-0.2-1.1-0.2-2.8c-1.3,2.1-3.6,3.4-6.9,3.4
	c-5.4,0-8.5-3.5-8.5-7.4C21.8,62.6,25,60.2,29,59.6z M36.5,64.1V63l-4.6,0.7c-1.6,0.2-2.8,1-2.8,2.7c0,1.3,0.8,2.5,2.9,2.5
	C34.3,69,36.5,67.9,36.5,64.1z"/>
<path class="st0" d="M53.7,61.5c0,3.9,2.6,6.1,5.7,6.1c2.9,0,4.5-1.8,5.1-3.6l6.6,2c-1.1,4.3-5.1,8.5-11.7,8.5
	c-7.3,0-13.1-5.4-13.1-13c0-7.6,5.7-13,12.9-13c6.7,0,10.7,4.1,11.8,8.5l-6.7,2c-0.5-1.9-2-3.6-4.9-3.6
	C56.2,55.4,53.7,57.6,53.7,61.5z"/>
<path class="st0" d="M80.2,59.6l5.8-0.9c1.3-0.2,1.8-0.8,1.8-1.7c0-1.4-1.2-2.7-3.6-2.7c-2.6,0-4,1.8-4.2,3.6l-6.5-1.3
	c0.3-3.5,3.5-8.1,10.7-8.1c7.9,0,10.8,4.4,10.8,9.5v12c0,1.9,0.2,3.5,0.3,3.8h-6.7c0-0.2-0.2-1.1-0.2-2.8c-1.3,2.1-3.6,3.4-6.9,3.4
	c-5.4,0-8.5-3.5-8.5-7.4C72.9,62.6,76.1,60.2,80.2,59.6z M87.7,64.1V63l-4.6,0.7c-1.6,0.2-2.8,1-2.8,2.7c0,1.3,0.8,2.5,2.9,2.5
	C85.4,69,87.7,67.9,87.7,64.1z"/>
<path class="st0" d="M123.6,69.3c0,2.2,0.1,3.8,0.2,4.4h-7.2c0-0.3-0.2-1.4-0.2-2.4c-1.1,1.7-3.6,2.9-6.6,2.9
	c-6.9,0-12.1-5.3-12.1-12.9c0-7.3,4.9-12.8,11.9-12.8c4.2,0,6,1.6,6.6,2.5V38.1h7.4V69.3z M110.8,67.6c2.9,0,5.5-2.1,5.5-6.1
	c0-4.1-2.6-6.1-5.5-6.1c-2.9,0-5.5,2-5.5,6.1C105.3,65.5,107.9,67.6,110.8,67.6z"/>
<path class="st0" d="M151.1,66.7c-1.2,4.2-5.1,7.8-11.3,7.8c-6.7,0-12.8-4.8-12.8-13.1c0-7.9,5.9-12.9,12.2-12.9
	c7.6,0,12.3,4.7,12.3,12.6c0,1-0.1,2.2-0.1,2.3h-17c0.1,2.8,2.7,4.7,5.6,4.7c2.7,0,4.2-1.3,4.9-3.2L151.1,66.7z M144.3,58.6
	c-0.1-1.9-1.4-4.1-4.9-4.1c-3.2,0-4.7,2.3-4.9,4.1H144.3z M141.7,46.3h-6l4.5-7.4h8.4L141.7,46.3z"/>
<path class="st0" d="M154.8,74.2V49.7h7.1v2.8c1.2-2.2,4.4-3.5,7-3.5c3.5,0,6,1.4,7.2,3.8c1.9-2.8,4.3-3.8,7.6-3.8
	c4.6,0,9.1,2.7,9.1,9.4v15.9h-7.2V60c0-2.3-1.2-4.1-3.9-4.1c-2.7,0-4.1,2-4.1,4.2v14.1h-7.4V60c0-2.3-1.2-4.1-3.9-4.1
	c-2.6,0-4,2-4,4.2v14.1H154.8z"/>
<path class="st0" d="M201.3,37.8c2.5,0,4.4,2,4.4,4.4c0,2.4-2,4.4-4.4,4.4c-2.4,0-4.3-2-4.3-4.4C196.9,39.8,198.9,37.8,201.3,37.8z"
	/>
<rect x="197.6" y="49.7" class="st0" width="7.5" height="24.5"/>
<path class="st0" d="M232.3,66.7c-1.2,4.2-5.1,7.8-11.3,7.8c-6.7,0-12.8-4.8-12.8-13.1c0-7.9,5.9-12.9,12.2-12.9
	c7.6,0,12.3,4.7,12.3,12.6c0,1-0.1,2.2-0.1,2.3h-17c0.1,2.8,2.7,4.7,5.6,4.7c2.7,0,4.2-1.3,4.9-3.2L232.3,66.7z M225.5,58.6
	c-0.1-1.9-1.4-4.1-4.9-4.1c-3.2,0-4.7,2.3-4.9,4.1H225.5z"/>
<path class="st1" d="M240.2,64.1c2.8,0,5.1,2.3,5.1,5c0,2.7-2.3,5.1-5.1,5.1c-2.8,0-5-2.4-5-5.1C235.1,66.3,237.4,64.1,240.2,64.1z"
	/>
<g>
	<path class="st0" d="M166,85.3l-0.1-0.9c-0.3,0.5-1,1-2,1c-1.6,0-3.1-1.2-3.1-3.3s1.6-3.3,3.1-3.3c1.4,0,2.4,0.8,2.8,1.9l-0.8,0.3
		c-0.3-0.9-1-1.5-2-1.5c-1.1,0-2.2,0.8-2.2,2.5s1.1,2.5,2.2,2.5c1.4,0,1.9-1,2-1.7h-2.2v-0.8h3v3.1H166z"/>
	<path class="st0" d="M169.9,82.7h-0.9v2.6H168v-6.3h2.4c1.2,0,1.9,0.8,1.9,1.9c0,0.9-0.6,1.6-1.5,1.8l1.5,2.7h-1L169.9,82.7z
		 M170.3,81.9c0.7,0,1.2-0.4,1.2-1.1c0-0.7-0.5-1.1-1.2-1.1h-1.3v2.2H170.3z"/>
	<path class="st0" d="M176.3,78.8c1.6,0,3.2,1.2,3.2,3.3c0,2.1-1.6,3.3-3.2,3.3c-1.6,0-3.2-1.2-3.2-3.3
		C173.1,80,174.7,78.8,176.3,78.8z M176.3,84.6c1.2,0,2.3-0.9,2.3-2.5c0-1.7-1.1-2.5-2.3-2.5c-1.2,0-2.3,0.8-2.3,2.5
		C174,83.7,175.1,84.6,176.3,84.6z"/>
	<path class="st0" d="M180.6,83.1v-4.2h0.9v4.2c0,1,0.5,1.5,1.4,1.5c0.9,0,1.4-0.5,1.4-1.5v-4.2h0.9v4.2c0,1.5-1,2.3-2.3,2.3
		C181.6,85.4,180.6,84.6,180.6,83.1z"/>
	<path class="st0" d="M187.6,82.7v2.6h-0.9v-6.3h2.3c1.2,0,2,0.8,2,1.9c0,1.1-0.8,1.9-2,1.9H187.6z M188.9,81.9
		c0.8,0,1.2-0.4,1.2-1.1c0-0.7-0.5-1.1-1.2-1.1h-1.3v2.2H188.9z"/>
	<path class="st0" d="M192.1,85.3v-6.3h3.9v0.8h-3v2h2.7v0.8h-2.7v1.9h3v0.8H192.1z"/>
	<path class="st0" d="M202.8,80.6c-0.1-0.5-0.5-1.1-1.3-1.1c-0.7,0-1.2,0.5-1.2,1.1c0,0.5,0.3,0.8,0.8,0.9l0.9,0.2
		c1.1,0.2,1.6,0.9,1.6,1.8c0,1-0.8,1.9-2.2,1.9c-1.5,0-2.3-1-2.4-1.9l0.8-0.3c0.1,0.7,0.6,1.4,1.5,1.4c0.9,0,1.3-0.5,1.3-1
		c0-0.5-0.3-0.9-0.9-1l-0.9-0.2c-0.9-0.2-1.5-0.8-1.5-1.7c0-1,0.9-1.9,2.1-1.9c1.4,0,2,0.9,2.1,1.6L202.8,80.6z"/>
	<path class="st0" d="M206.6,82.4l-0.9,1v1.9h-0.9v-6.3h0.9v3.3l3-3.3h1.2l-2.6,2.8l2.7,3.5h-1.1L206.6,82.4z"/>
	<path class="st0" d="M210.8,85.3v-6.3h0.9v6.3H210.8z"/>
	<path class="st0" d="M213.3,85.3v-6.3h0.9v5.5h3v0.8H213.3z"/>
	<path class="st0" d="M218.2,85.3v-6.3h0.9v5.5h3v0.8H218.2z"/>
	<path class="st0" d="M226.3,84.4c-0.5,0.6-1.1,0.9-1.8,0.9c-1.2,0-1.8-0.8-1.8-1.6c0-0.8,0.4-1.3,1.1-1.8l0.1-0.1l-0.1-0.1
		c-0.3-0.3-0.8-0.8-0.8-1.4c0-1,0.9-1.6,1.6-1.6c1,0,1.7,0.6,1.7,1.5c0,0.6-0.4,1.1-0.9,1.4l-0.3,0.2l1.2,1.2l1.4-1.6v1.2l-0.9,1
		l1.4,1.5h-1.2L226.3,84.4z M225.7,83.9L225.7,83.9l-1.3-1.4l-0.3,0.2c-0.3,0.2-0.5,0.5-0.5,1c0,0.4,0.4,0.9,0.9,0.9
		C225,84.6,225.4,84.3,225.7,83.9z M224.4,81.2l0.2,0.2l0.4-0.3c0.4-0.3,0.5-0.5,0.5-0.8c0-0.4-0.3-0.8-0.8-0.8
		c-0.4,0-0.8,0.3-0.8,0.8C223.9,80.7,224.2,81,224.4,81.2z"/>
	<path class="st0" d="M227.7,78.9h1.1l1.6,2.8l1.6-2.8h1l-2.2,3.6v2.7H230v-2.7L227.7,78.9z"/>
	<path class="st0" d="M236.4,78.8c1.6,0,3.2,1.2,3.2,3.3c0,2.1-1.6,3.3-3.2,3.3c-1.6,0-3.2-1.2-3.2-3.3
		C233.2,80,234.8,78.8,236.4,78.8z M236.4,84.6c1.2,0,2.3-0.9,2.3-2.5c0-1.7-1.1-2.5-2.3-2.5c-1.2,0-2.3,0.8-2.3,2.5
		C234.1,83.7,235.2,84.6,236.4,84.6z"/>
	<path class="st0" d="M240.7,83.1v-4.2h0.9v4.2c0,1,0.5,1.5,1.4,1.5c0.9,0,1.4-0.5,1.4-1.5v-4.2h0.9v4.2c0,1.5-1,2.3-2.3,2.3
		C241.7,85.4,240.7,84.6,240.7,83.1z"/>
</g>
<rect x="50.3" y="33.6" class="st1" width="24.4" height="6.3"/>
</svg>
