<?xml version="1.0" encoding="utf-8"?>
<!-- Generator: Adobe Illustrator 24.3.0, SVG Export Plug-In . SVG Version: 6.00 Build 0)  -->
<svg version="1.1" id="Calque_1" xmlns="http://www.w3.org/2000/svg" xmlns:xlink="http://www.w3.org/1999/xlink" x="0px" y="0px" width="84.82mm" height="25.56mm"
	 viewBox="0 0 240.4 72.5" style="enable-background:new 0 0 240.4 72.5;" xml:space="preserve">
<style type="text/css">
	.st0{fill:#FFFFFF;}
</style>
<path class="st0" d="M28.8,32.2V2.9h6V14c0.8-1.3,3.1-2.4,5.8-2.4c5.8,0,9.3,4.4,9.3,10.5c0,6.1-4,10.5-9.6,10.5
	c-2.7,0-4.7-1.2-5.7-2.7v2.3H28.8z M39.3,17.2c-2.4,0-4.6,1.6-4.6,5c0,3.3,2.2,5,4.6,5c2.4,0,4.5-1.7,4.5-5
	C43.9,18.7,41.7,17.2,39.3,17.2z"/>
<path class="st0" d="M71.8,18c-1,3.5-4.2,6.4-9.3,6.4c-5.5,0-10.5-4-10.5-10.7c0-6.5,4.8-10.6,10-10.6c6.2,0,10.1,3.8,10.1,10.3
	c0,0.8-0.1,1.8-0.1,1.9H58c0.1,2.3,2.2,3.9,4.6,3.9c2.2,0,3.5-1.1,4-2.6L71.8,18z M66.2,11.3c-0.1-1.5-1.1-3.4-4-3.4
	c-2.6,0-3.9,1.9-4,3.4H66.2z"/>
<path class="st0" d="M34.8,48.9l4.7-0.7c1.1-0.2,1.5-0.7,1.5-1.4c0-1.2-1-2.2-2.9-2.2c-2.1,0-3.3,1.5-3.4,2.9l-5.3-1.1
	c0.2-2.9,2.9-6.7,8.8-6.7c6.5,0,8.9,3.6,8.9,7.8v9.8c0,1.6,0.2,2.9,0.2,3.1h-5.5c0-0.2-0.2-0.9-0.2-2.3c-1.1,1.7-3,2.8-5.7,2.8
	c-4.4,0-6.9-2.9-6.9-6.1C28.8,51.4,31.5,49.4,34.8,48.9z M40.9,52.6v-0.9l-3.8,0.6c-1.3,0.2-2.3,0.8-2.3,2.2c0,1.1,0.7,2.1,2.4,2.1
	C39.1,56.6,40.9,55.7,40.9,52.6z"/>
<path class="st0" d="M55,50.5c0,3.2,2.1,5,4.7,5c2.4,0,3.7-1.5,4.2-3l5.4,1.7c-0.9,3.5-4.2,7-9.6,7c-6,0-10.8-4.4-10.8-10.6
	c0-6.3,4.7-10.7,10.6-10.7c5.5,0,8.8,3.4,9.7,7l-5.5,1.7c-0.4-1.5-1.7-3-4-3C57.1,45.4,55,47.2,55,50.5z"/>
<path class="st0" d="M76.7,48.9l4.7-0.7c1.1-0.2,1.5-0.7,1.5-1.4c0-1.2-1-2.2-2.9-2.2c-2.1,0-3.3,1.5-3.4,2.9l-5.3-1.1
	c0.2-2.9,2.9-6.7,8.8-6.7c6.5,0,8.9,3.6,8.9,7.8v9.8c0,1.6,0.2,2.9,0.2,3.1h-5.5c0-0.2-0.2-0.9-0.2-2.3c-1.1,1.7-3,2.8-5.7,2.8
	c-4.4,0-6.9-2.9-6.9-6.1C70.8,51.4,73.4,49.4,76.7,48.9z M82.9,52.6v-0.9l-3.8,0.6c-1.3,0.2-2.3,0.8-2.3,2.2c0,1.1,0.7,2.1,2.4,2.1
	C81.1,56.6,82.9,55.7,82.9,52.6z"/>
<path class="st0" d="M112.4,56.9c0,1.8,0.1,3.2,0.2,3.6h-5.9c0-0.2-0.2-1.1-0.2-1.9c-0.9,1.4-2.9,2.4-5.4,2.4
	c-5.7,0-9.9-4.4-9.9-10.5c0-6,4-10.5,9.7-10.5c3.4,0,4.9,1.3,5.4,2.1V31.2h6.1V56.9z M101.9,55.4c2.4,0,4.5-1.7,4.5-5
	c0-3.4-2.1-5-4.5-5c-2.4,0-4.5,1.6-4.5,5C97.4,53.7,99.5,55.4,101.9,55.4z"/>
<path class="st0" d="M134.9,54.7c-1,3.5-4.2,6.4-9.3,6.4c-5.5,0-10.5-4-10.5-10.7c0-6.5,4.8-10.6,10-10.6c6.2,0,10.1,3.8,10.1,10.3
	c0,0.8-0.1,1.8-0.1,1.9h-14c0.1,2.3,2.2,3.9,4.6,3.9c2.2,0,3.5-1.1,4-2.6L134.9,54.7z M129.3,48c-0.1-1.5-1.1-3.4-4-3.4
	c-2.6,0-3.9,1.9-4,3.4H129.3z M127.2,38h-4.9l3.7-6.1h6.9L127.2,38z"/>
<path class="st0" d="M137.9,60.8V40.8h5.9v2.3c1-1.8,3.6-2.9,5.8-2.9c2.9,0,4.9,1.2,5.9,3.2c1.6-2.3,3.5-3.2,6.2-3.2
	c3.8,0,7.4,2.2,7.4,7.7v13h-5.9V49.2c0-1.9-1-3.4-3.2-3.4c-2.2,0-3.4,1.7-3.4,3.4v11.6h-6.1V49.2c0-1.9-1-3.4-3.2-3.4
	c-2.1,0-3.3,1.7-3.3,3.5v11.6H137.9z"/>
<path class="st0" d="M176.1,31c2,0,3.6,1.6,3.6,3.6s-1.6,3.6-3.6,3.6c-1.9,0-3.6-1.6-3.6-3.6S174.1,31,176.1,31z"/>
<rect x="173.1" y="40.8" class="st0" width="6.1" height="20.1"/>
<path class="st0" d="M201.5,54.7c-1,3.5-4.2,6.4-9.3,6.4c-5.5,0-10.5-4-10.5-10.7c0-6.5,4.8-10.6,10-10.6c6.2,0,10.1,3.8,10.1,10.3
	c0,0.8-0.1,1.8-0.1,1.9h-14c0.1,2.3,2.2,3.9,4.6,3.9c2.2,0,3.5-1.1,4-2.6L201.5,54.7z M196,48c-0.1-1.5-1.1-3.4-4-3.4
	c-2.6,0-3.9,1.9-4,3.4H196z"/>
<path class="st0" d="M208,52.6c2.3,0,4.2,1.9,4.2,4.1c0,2.2-1.9,4.2-4.2,4.2c-2.3,0-4.1-1.9-4.1-4.2C203.9,54.4,205.7,52.6,208,52.6
	z"/>
<g>
	<path class="st0" d="M147.1,69.9l-0.1-0.7c-0.2,0.4-0.8,0.8-1.7,0.8c-1.3,0-2.5-1-2.5-2.7c0-1.8,1.3-2.7,2.6-2.7
		c1.1,0,2,0.6,2.3,1.6l-0.7,0.3c-0.2-0.7-0.8-1.2-1.7-1.2c-0.9,0-1.8,0.7-1.8,2s0.9,2.1,1.8,2.1c1.2,0,1.6-0.8,1.6-1.4h-1.8v-0.6
		h2.5v2.5H147.1z"/>
	<path class="st0" d="M150.3,67.8h-0.8v2.1h-0.7v-5.2h2c1,0,1.6,0.7,1.6,1.6c0,0.7-0.5,1.3-1.3,1.5l1.2,2.2h-0.8L150.3,67.8z
		 M150.7,67.2c0.6,0,1-0.3,1-0.9c0-0.6-0.4-0.9-1-0.9h-1.1v1.8H150.7z"/>
	<path class="st0" d="M155.6,64.6c1.3,0,2.6,1,2.6,2.7s-1.3,2.7-2.6,2.7c-1.3,0-2.6-1-2.6-2.7S154.3,64.6,155.6,64.6z M155.6,69.4
		c1,0,1.9-0.7,1.9-2.1s-0.9-2-1.9-2c-1,0-1.9,0.7-1.9,2S154.7,69.4,155.6,69.4z"/>
	<path class="st0" d="M159.2,68.2v-3.4h0.7v3.4c0,0.8,0.4,1.2,1.2,1.2c0.7,0,1.2-0.4,1.2-1.2v-3.4h0.7v3.4c0,1.2-0.8,1.9-1.9,1.9
		C160,70.1,159.2,69.4,159.2,68.2z"/>
	<path class="st0" d="M164.9,67.8v2.1h-0.7v-5.2h1.9c1,0,1.6,0.7,1.6,1.5c0,0.9-0.6,1.5-1.6,1.5H164.9z M165.9,67.2
		c0.6,0,1-0.3,1-0.9c0-0.6-0.4-0.9-1-0.9h-1v1.8H165.9z"/>
	<path class="st0" d="M168.5,69.9v-5.2h3.2v0.7h-2.4V67h2.2v0.7h-2.2v1.6h2.4v0.7H168.5z"/>
	<path class="st0" d="M177.3,66.1c-0.1-0.4-0.4-0.9-1.1-0.9c-0.6,0-1,0.4-1,0.9c0,0.4,0.2,0.7,0.7,0.8l0.8,0.2
		c0.9,0.2,1.4,0.7,1.4,1.5c0,0.8-0.7,1.5-1.8,1.5c-1.3,0-1.9-0.8-1.9-1.6l0.7-0.2c0.1,0.6,0.5,1.1,1.2,1.1c0.7,0,1.1-0.4,1.1-0.8
		c0-0.4-0.3-0.7-0.8-0.8l-0.7-0.2c-0.7-0.2-1.3-0.6-1.3-1.4c0-0.8,0.8-1.6,1.7-1.6c1.2,0,1.6,0.7,1.8,1.3L177.3,66.1z"/>
	<path class="st0" d="M180.5,67.6l-0.7,0.8v1.6H179v-5.2h0.7v2.7l2.4-2.7h0.9l-2.2,2.3l2.2,2.9h-0.9L180.5,67.6z"/>
	<path class="st0" d="M183.9,69.9v-5.2h0.7v5.2H183.9z"/>
	<path class="st0" d="M186,69.9v-5.2h0.7v4.5h2.5v0.7H186z"/>
	<path class="st0" d="M190,69.9v-5.2h0.7v4.5h2.5v0.7H190z"/>
	<path class="st0" d="M196.7,69.3c-0.4,0.5-0.9,0.8-1.5,0.8c-1,0-1.5-0.7-1.5-1.3c0-0.7,0.4-1,0.9-1.5l0.1-0.1l-0.1-0.1
		c-0.2-0.3-0.6-0.7-0.6-1.2c0-0.8,0.7-1.3,1.3-1.3c0.8,0,1.4,0.5,1.4,1.3c0,0.5-0.4,0.9-0.7,1.2l-0.3,0.2l1,1l1.2-1.3v0.9l-0.7,0.8
		l1.2,1.2h-1L196.7,69.3z M196.2,68.8L196.2,68.8l-1-1.1l-0.3,0.2c-0.2,0.2-0.4,0.4-0.4,0.8c0,0.4,0.3,0.7,0.8,0.7
		C195.6,69.4,195.9,69.1,196.2,68.8z M195.1,66.6l0.2,0.2l0.4-0.3c0.3-0.2,0.4-0.4,0.4-0.6c0-0.3-0.3-0.6-0.7-0.6
		c-0.3,0-0.6,0.2-0.6,0.6C194.7,66.2,194.9,66.4,195.1,66.6z"/>
	<path class="st0" d="M197.8,64.7h0.9l1.4,2.3l1.4-2.3h0.8l-1.8,3v2.2h-0.7v-2.2L197.8,64.7z"/>
	<path class="st0" d="M204.9,64.6c1.3,0,2.6,1,2.6,2.7s-1.3,2.7-2.6,2.7c-1.3,0-2.6-1-2.6-2.7S203.6,64.6,204.9,64.6z M204.9,69.4
		c1,0,1.9-0.7,1.9-2.1s-0.9-2-1.9-2c-1,0-1.9,0.7-1.9,2S203.9,69.4,204.9,69.4z"/>
	<path class="st0" d="M208.4,68.2v-3.4h0.7v3.4c0,0.8,0.4,1.2,1.2,1.2c0.7,0,1.2-0.4,1.2-1.2v-3.4h0.7v3.4c0,1.2-0.8,1.9-1.9,1.9
		C209.2,70.1,208.4,69.4,208.4,68.2z"/>
</g>
<rect x="52.2" y="27.6" class="st0" width="20.1" height="5.2"/>
</svg>
