<svg xmlns="http://www.w3.org/2000/svg" width="395.61" height="399" viewBox="0 0 395.61 399"><path d="M174,61a13.4,13.4,0,1,1-13.39-13.39A13.4,13.4,0,0,1,174,61Z" transform="translate(-1.04 -1)" style="fill:#1e1e1e"/><path d="M115.36,61A13.39,13.39,0,1,1,102,47.58,13.39,13.39,0,0,1,115.36,61Z" transform="translate(-1.04 -1)" style="fill:#1e1e1e"/><path d="M95.13,57.37c-.3-1-7.19-23.87,4.11-40,6.4-9.13,17.29-14.13,32.36-14.85,14.34-.68,24.86,3.14,31.26,11.34,12.41,15.94,4.6,42.36,4.26,43.48l-3.91-1.18c.08-.26,7.54-25.54-3.58-39.79C154.1,9.29,144.73,6,131.79,6.63c-13.74.65-23.56,5.06-29.21,13.1C92.42,34.23,99,56,99,56.16Z" transform="translate(-1.04 -1)" style="fill:#1e1e1e"/><path d="M150.67,96.17s-1.22,20.57.71,25-25.32,18.36-42.33,2.34c0,0,3.44-22.32,2.37-30.2S150.67,96.17,150.67,96.17Z" transform="translate(-1.04 -1)" style="fill:#eeb6c7"/><path d="M136.78,9.62s31.69,5.34,26.31,55-33.34,45.23-35.21,45.16-28.13.6-29.52-60.06C98.36,49.67,98,4.83,136.78,9.62Z" transform="translate(-1.04 -1)" style="fill:#fdc2d2"/><path d="M113.6,103.1s5.05,7,16.8,6.75,16.85-6.38,16.85-6.38-5.56,11.63-16.9,11.51S113.6,103.1,113.6,103.1Z" transform="translate(-1.04 -1)" style="fill:#dfa7b9"/><path d="M320.7,220.45s9.55-3,10.32-8.66c.66-4.81,5-10.56,6.31-12.33,1.77-2.38,4.51-11.69,7.53-9.47s-3.78,15.56-4.65,18.64,12.21-2.78,15.44-2,11.73,23,2.29,26-21.48,0-23,.81a60.14,60.14,0,0,1-6.78,2.45Z" transform="translate(-1.04 -1)" style="fill:#fdc2d2"/><path d="M353.28,206.84s29.5-7.24,31.86-6.08,2.67,2.78-.06,3.57-28.29,7.82-28.29,7.82,36.35-2.7,38.49-2.17c1.26.31,2,3.41.6,4s-37.29,5.3-37.29,5.3,33.94-2.46,35.61-1.48a2.34,2.34,0,0,1-1.06,4.23c-2.51.36-33.88,4.42-33.88,4.42s24.81-.24,25.74,1.42c.56,1,1.35,3.67-5.06,3.53s-21.55,1.12-21.55,1.12Z" transform="translate(-1.04 -1)" style="fill:#fdc2d2"/><path d="M180.6,188.66s7.66,13.52,17.9,28.72c.95,1.4,1.91,2.82,2.89,4.23v0c1.33,1.92,2.69,3.85,4.08,5.76,1.65,2.29,3.34,4.56,5,6.77C220,246.48,230,257,237.61,258.82c16.42,4,98.92-14.25,98.92-14.25l-6.38-32.44S301.23,222,281.9,223.59c-11.86,1-26.64,4.88-28.4,3.78s-35.59-49.9-38-55.17S202.26,146.28,193,136.4s-19.24-6.11-19.24-6.11C146.16,148.28,180.6,188.66,180.6,188.66Z" transform="translate(-1.04 -1)" style="fill:#199a8d"/><path d="M191.38,400H53.89c.9-5,1.86-9.93,2.89-14.63a219.1,219.1,0,0,1,8.81-31.08c12.51-32.72,121.66,16.13,121.66,16.13s.65,4.74,1.73,12.47C189.64,387.61,190.45,393.45,191.38,400Z" transform="translate(-1.04 -1)" style="fill:#25323e"/><path d="M147.94,121.28s35.46,7.34,39.67,11.06c4.57,4,12.63,42.81,13.11,53.63s-4.28,56-8.85,72.84-2.91,99.63,0,123c0,0-52.55,23.53-141.25,2.18,0,0,15.44-76.77,12.63-99.83-3.6-29.55-10.68-102.06-10.68-102.06s-.22-44.35,6-49.64,52.26-11.13,52.26-11.13Z" transform="translate(-1.04 -1)" style="fill:#199a8d"/><path d="M78.62,130.29s22.21,6.11,10,46.89C79,209.11,77.74,216,77.74,216l-51.26-12.8S39.6,135.7,64.14,129.9C64.14,129.9,73.85,128.13,78.62,130.29Z" transform="translate(-1.04 -1)" style="fill:#199a8d"/><path d="M198.5,217.38c.95,1.4,1.91,2.82,2.89,4.23v0c1.33,1.92,2.69,3.85,4.08,5.76,1-19-3.95-45.34-3.95-45.34C202.49,190.88,198.5,217.38,198.5,217.38Z" transform="translate(-1.04 -1)" style="fill:#0e8e7e"/><rect x="164.42" y="187.1" width="21.77" height="33.25" style="fill:#199a8d"/><path d="M150.5,116.12s-21.92,6.44-40.28-1.14L109,124s24.63,9.35,43.87,5.07Z" transform="translate(-1.04 -1)" style="fill:#eeb6c7"/><path d="M6.23,393.41A23.84,23.84,0,0,0,6.39,390C6.22,385.1,4,374.47,4,374.47l20.82,6s1.45,8.92,2.87,12.51a6,6,0,0,0,.55,1.13A39.49,39.49,0,0,1,31,400H5.23C5.6,397.63,6,395.49,6.23,393.41Z" transform="translate(-1.04 -1)" style="fill:#fdc2d2"/><path d="M30.85,392.6A137.47,137.47,0,0,1,1,393.06S11,280,10.48,273.58c-.47-5.91,22.84-111,35.64-126.91l19.47,61.46c-1.48-.48-21.19,62.67-21.47,69.18C43.76,286,30.85,392.6,30.85,392.6Z" transform="translate(-1.04 -1)" style="fill:#199a8d"/><path d="M166,41.42c1-13.18,0-24.07-1.72-30.79-2.11-8.3-15.53-6-15.53-6h0c-20.46-6.13-32.79-3.32-40.54,0-11.6,9.51-12.48,25.69-11.95,34.6.23,2.11.47,4.23.71,6.3a.15.15,0,0,0,0,.06c1,8.86,2.11,16.57,2.11,16.57l3.69,4.26s-1-14.76,1.32-15.59c1.22-.45,1.51-3.43,1.52-6.08,0-2.29-.19-4.34-.19-4.34,23.66-10.89,50.23-3.13,50.82-1.63.37.95.92,3.78,1.45,6.29.32,1.52.63,2.92.9,3.72.7,2.09.43,15.41.43,15.41l4.61-6s.59-2.87,1.35-7.2h0c.24-1.41.51-3,.77-4.63C165.76,46.33,166,44.45,166,41.42Z" transform="translate(-1.04 -1)" style="fill:#25323e"/><path d="M145,95.05l-1.39-2.34A61.51,61.51,0,0,0,167.92,65.9l2.54,1A63.37,63.37,0,0,1,145,95.05Z" transform="translate(-1.04 -1)" style="fill:#1e1e1e"/><path d="M147.17,93.88a3.75,3.75,0,1,1-3.74-3.74A3.75,3.75,0,0,1,147.17,93.88Z" transform="translate(-1.04 -1)" style="fill:#1e1e1e"/></svg>