<svg xmlns="http://www.w3.org/2000/svg" width="200" height="100" viewBox="0 0 200 100"><title>lp_megaphone_anim</title><path d="M32.68,68.76h0l1.87-11.31,3.39.56-1.31,7.93A3.43,3.43,0,0,1,32.68,68.76Z" style="fill:#25323e"/><path d="M39.41,60.39s-8.09-1.57-13.71-1.28c-3.83.2-7.62.94-8.93-.66-2.66-3.23-.5-16.3,3.06-18.5,1.75-1.09,5.1.83,8.66,2.25,5.23,2.09,13.4,3.21,13.4,3.21Z" style="fill:#fff"/><path d="M27.56,40a24,24,0,0,1-3.44,20.82" style="fill:none;stroke:#7fb7e0;stroke-miterlimit:10"/><ellipse cx="21.52" cy="49.73" rx="14.11" ry="6.6" transform="translate(-31.06 62.84) rotate(-80.61)" style="fill:#fff"/><path d="M26,50.47a22,22,0,0,1-1,3.9c-1.41,3.9-3.72,6.45-5.87,6.09-2.81-.47-4.29-5.69-3.3-11.67s4.07-10.45,6.88-10c2.15.36,3.52,3.51,3.6,7.66A21.69,21.69,0,0,1,26,50.47Z" style="fill:#7fb7e0"/><path d="M39.77,60.45l-2.18-.36c2.43.4,4.9-14.58,2.48-15l2.18.36a5.85,5.85,0,0,1,4.8,6.71l-.58,3.46A5.83,5.83,0,0,1,39.77,60.45Z" style="fill:#25323e"/><path d="M26,50.47a22,22,0,0,1-1,3.9l-7.06-3.54.54-3.3,7.83-1.07A21.69,21.69,0,0,1,26,50.47Z" style="fill:#25323e"/><path d="M19,49.31c-.16.94-.64,1.64-1.08,1.56s-.67-.89-.51-1.82.63-1.63,1.07-1.56S19.13,48.38,19,49.31Z" style="fill:#fff"/><path d="M12.62,27.94a7.59,7.59,0,0,1,1.48,1.82,12.21,12.21,0,0,1,.94,2,11.38,11.38,0,0,1,.54,2.16,7.4,7.4,0,0,1,0,2.35,7.54,7.54,0,0,1-1.48-1.82,10.56,10.56,0,0,1-.94-2,11.1,11.1,0,0,1-.54-2.15A7.41,7.41,0,0,1,12.62,27.94Z" style="fill:#fff"/><path d="M4.86,33.63A11,11,0,0,1,7.37,35a17.26,17.26,0,0,1,2.11,1.78,17.19,17.19,0,0,1,1.81,2.08,10.56,10.56,0,0,1,1.4,2.49A11.43,11.43,0,0,1,10.18,40a18.19,18.19,0,0,1-3.91-3.86A11.17,11.17,0,0,1,4.86,33.63Z" style="fill:#fff"/><path d="M.27,42.94a10.72,10.72,0,0,1,2.85.18,17,17,0,0,1,2.65.71,17.55,17.55,0,0,1,2.52,1.11,11.26,11.26,0,0,1,2.32,1.66,11.16,11.16,0,0,1-2.85-.17,17,17,0,0,1-2.65-.72A17.07,17.07,0,0,1,2.59,44.6,11,11,0,0,1,.27,42.94Z" style="fill:#fff"/><path d="M1.46,52.56a7.69,7.69,0,0,1,2.17-.93,11.31,11.31,0,0,1,2.22-.37,12,12,0,0,1,2.24.06,7.67,7.67,0,0,1,2.28.64,7.91,7.91,0,0,1-2.18.93A10.51,10.51,0,0,1,6,53.25a11.21,11.21,0,0,1-2.24-.06A8,8,0,0,1,1.46,52.56Z" style="fill:#fff"/><path d="M4.72,60.82A6,6,0,0,1,6,59.19a8.52,8.52,0,0,1,1.54-1.14,8.27,8.27,0,0,1,1.75-.76A6.09,6.09,0,0,1,11.32,57a6.05,6.05,0,0,1-1.26,1.64,8.34,8.34,0,0,1-1.54,1.13,8.39,8.39,0,0,1-1.76.77A6,6,0,0,1,4.72,60.82Z" style="fill:#fff"/><path d="M31.36,63.26s-3.59,23.88-2.11,26.39,22.26-16,22.26-16l-2.74-6L34.44,79.72,33.36,66.94Z" style="fill:#107d72"/><path d="M37.53,63.26c0,2.33-3,5.71-4.68,5.71s-1.49-3.38-1.49-5.71,1.38-2.86,3.09-2.86S37.53,60.92,37.53,63.26Z" style="fill:#fdc2d2"/><path d="M91.87,59.09s8.7,22.54,7.79,25.31-25.2-10.77-25.2-10.77l1.36-6.5,16.62,8.7L90.72,63.12Z" style="fill:#107d72"/><path d="M85.85,60.43c.51,2.28,4.15,4.93,5.81,4.56s.72-3.62.21-5.9-2-2.49-3.63-2.12S85.35,58.15,85.85,60.43Z" style="fill:#fdc2d2"/><path d="M74.46,100.16H53.4s-9.95-26.32-4.63-32.54c4.4-5.14,27-.49,27-.49C73.82,79.43,74.46,100.16,74.46,100.16Z" style="fill:#fff"/><polygon points="67.33 71.1 56.65 76.57 54.25 71.94 58.65 65.2 58.65 58.26 67.33 58.26 67.33 71.1" style="fill:#eeb6c7"/><path d="M58.65,65.2a12.75,12.75,0,0,0-2,11.37c-5.23-4.64-2.9-6.28-2.9-6.28l2.15-2.46L54.76,63.6h3.89Z" style="fill:#fff"/><path d="M67.33,65.8V63.26l5.3-.32-3.31,4.22,2.34,2.6s-9.52,6.81-15,6.81C62.75,73.27,67.33,65.8,67.33,65.8Z" style="fill:#fff"/><path d="M54.76,63.6c.53,1.37,1,2.76,1.41,4.15l0,.13-.09.12-1.29,1.68-1.3,1.68,0-.38c.56.9,1.11,1.81,1.63,2.75s1,1.87,1.47,2.84c-.68-.83-1.31-1.69-1.91-2.57S53.55,72.23,53,71.33l-.13-.2L53,71l1.32-1.66,1.35-1.64,0,.25C55.3,66.48,55,65.05,54.76,63.6Z" style="fill:#096055"/><path d="M72.63,62.94c-.5.75-1,1.47-1.54,2.2-.25.37-.52.73-.78,1.09l-.8,1.09V67l1.2,1.27,1.19,1.28.26.27-.32.2c-1.18.75-2.36,1.46-3.58,2.13s-2.44,1.32-3.7,1.91a39.47,39.47,0,0,1-3.85,1.6c-.65.23-1.32.42-2,.59a10.93,10.93,0,0,1-2.05.32,18.7,18.7,0,0,0,3.92-1.27c1.26-.54,2.5-1.13,3.73-1.76s2.43-1.28,3.63-2,2.4-1.37,3.56-2.09l-.06.48-1.15-1.32-1.14-1.32L69,67.17l.13-.16L70,66c.29-.34.57-.68.87-1C71.45,64.29,72,63.6,72.63,62.94Z" style="fill:#096055"/><path d="M56.68,76.57c.07,2,.25,4,.47,6s.48,4,.82,5.91.75,3.9,1.12,5.85c.18,1,.39,2,.57,2.93.08.49.19,1,.29,1.46s.19,1,.26,1.48l-.06,0a46.21,46.21,0,0,1-1.7-5.75,56.51,56.51,0,0,1-1-5.91q-.41-3-.63-6c-.13-2-.22-4-.2-6Z" style="fill:#096055"/><path d="M60.79,78.62a1.25,1.25,0,0,1-1.07,1.24,1.21,1.21,0,0,1-.95-.28,1.26,1.26,0,0,1-.45-1,1.3,1.3,0,0,1,.44-1,1.24,1.24,0,0,1,2,1Zm0,0a.94.94,0,0,0-.34-.72.9.9,0,0,0-.73-.18.92.92,0,0,0,0,1.81.89.89,0,0,0,.73-.18A1,1,0,0,0,60.79,78.62Z" style="fill:#096055"/><path d="M54.25,42.28s-.11,17-6.16,17.59c10.56.53,14.27-3.54,14-8.8S59.73,33.85,54.25,42.28Z" style="fill:#25323e"/><path d="M69.78,50.28c0,6.41-5.14,12.32-9.93,12.32s-7.42-5.91-7.42-12.32,3.88-11.6,8.67-11.6S69.78,43.88,69.78,50.28Z" style="fill:#fdc2d2"/><path d="M57.44,43.18a5.33,5.33,0,0,1-2.92,1.42c-1.79-1.34-2.33-4.52-.7-6.05,7.64-7.19,14.74-1.65,14.06-.07,6.74-3.74,9.79,7.83,9.29,10.75a10.94,10.94,0,0,1-4.86,7.14,13.86,13.86,0,0,1-8.48,2.08,11.09,11.09,0,0,0,4-8.46,11.22,11.22,0,0,0-3.48-8C62,39.86,59.43,41.54,57.44,43.18Z" style="fill:#25323e"/><path d="M54.82,65.38s-7.24,13.24,2.6,21.07c17-9.88,15.21-19.89,15.21-19.89l3.19.57c4.42,13.34-1.36,33-1.36,33H49.24a26.15,26.15,0,0,0-.41-13.58c-1.24-3.9-4.75-15-1-18.14A8.93,8.93,0,0,1,54.82,65.38Z" style="fill:#107d72"/><path d="M132.68,68.76h0l1.87-11.31,3.39.56-1.31,7.93A3.43,3.43,0,0,1,132.68,68.76Z" style="fill:#25323e"/><path d="M139.41,60.39s-8.09-1.57-13.71-1.28c-3.83.2-7.62.94-8.93-.66-2.66-3.23-.5-16.3,3.06-18.5,1.75-1.09,5.1.83,8.66,2.25,5.23,2.09,13.4,3.21,13.4,3.21Z" style="fill:#fff"/><path d="M127.56,40a24,24,0,0,1-3.44,20.82" style="fill:none;stroke:#7fb7e0;stroke-miterlimit:10"/><ellipse cx="121.52" cy="49.73" rx="14.11" ry="6.6" transform="translate(52.62 161.5) rotate(-80.61)" style="fill:#fff"/><path d="M126,50.47a22,22,0,0,1-1,3.9c-1.41,3.9-3.72,6.45-5.87,6.09-2.81-.47-4.29-5.69-3.3-11.67s4.07-10.45,6.88-10c2.15.36,3.52,3.51,3.6,7.66A21.69,21.69,0,0,1,126,50.47Z" style="fill:#7fb7e0"/><path d="M139.77,60.45l-2.18-.36c2.43.4,4.9-14.58,2.48-15l2.18.36a5.85,5.85,0,0,1,4.8,6.71l-.58,3.46A5.83,5.83,0,0,1,139.77,60.45Z" style="fill:#25323e"/><path d="M126,50.47a22,22,0,0,1-1,3.9l-7.06-3.54.54-3.3,7.83-1.07A21.69,21.69,0,0,1,126,50.47Z" style="fill:#25323e"/><path d="M119,49.31c-.16.94-.64,1.64-1.08,1.56s-.67-.89-.51-1.82.63-1.63,1.07-1.56S119.13,48.38,119,49.31Z" style="fill:#fff"/><path d="M131.36,63.26s-3.59,23.88-2.11,26.39,22.26-16,22.26-16l-2.74-6-14.33,12.1-1.08-12.78Z" style="fill:#107d72"/><path d="M137.53,63.26c0,2.33-3,5.71-4.68,5.71s-1.49-3.38-1.49-5.71,1.38-2.86,3.09-2.86S137.53,60.92,137.53,63.26Z" style="fill:#fdc2d2"/><path d="M191.87,59.09s8.7,22.54,7.79,25.31-25.2-10.77-25.2-10.77l1.36-6.5,16.62,8.7-1.72-12.71Z" style="fill:#107d72"/><path d="M185.85,60.43c.51,2.28,4.15,4.93,5.81,4.56s.72-3.62.21-5.9-2-2.49-3.63-2.12S185.35,58.15,185.85,60.43Z" style="fill:#fdc2d2"/><path d="M174.46,100.16H153.4s-10-26.32-4.63-32.54c4.4-5.14,27-.49,27-.49C173.82,79.43,174.46,100.16,174.46,100.16Z" style="fill:#fff"/><polygon points="167.33 71.1 156.65 76.57 154.25 71.94 158.65 65.2 158.65 58.26 167.33 58.26 167.33 71.1" style="fill:#eeb6c7"/><path d="M158.65,65.2a12.75,12.75,0,0,0-2,11.37c-5.23-4.64-2.9-6.28-2.9-6.28l2.15-2.46-1.14-4.23h3.89Z" style="fill:#fff"/><path d="M167.33,65.8V63.26l5.3-.32-3.31,4.22,2.34,2.6s-9.52,6.81-15,6.81C162.75,73.27,167.33,65.8,167.33,65.8Z" style="fill:#fff"/><path d="M154.76,63.6c.53,1.37,1,2.76,1.41,4.15l0,.13-.09.12-1.29,1.68-1.3,1.68,0-.38c.56.9,1.11,1.81,1.63,2.75s1,1.87,1.47,2.84c-.68-.83-1.31-1.69-1.91-2.57s-1.19-1.77-1.75-2.67l-.13-.2L153,71l1.32-1.66,1.35-1.64-.05.25C155.3,66.48,155,65.05,154.76,63.6Z" style="fill:#096055"/><path d="M172.63,62.94c-.5.75-1,1.47-1.54,2.2-.25.37-.52.73-.78,1.09l-.8,1.09V67l1.2,1.27,1.19,1.28.26.27-.32.2c-1.18.75-2.36,1.46-3.58,2.13s-2.44,1.32-3.7,1.91a39.47,39.47,0,0,1-3.85,1.6c-.65.23-1.32.42-2,.59a10.93,10.93,0,0,1-2,.32,18.7,18.7,0,0,0,3.92-1.27c1.26-.54,2.5-1.13,3.73-1.76s2.43-1.28,3.63-2,2.4-1.37,3.56-2.09l-.06.48-1.15-1.32-1.14-1.32-.14-.16.13-.16.86-1c.29-.34.57-.68.87-1C171.45,64.29,172,63.6,172.63,62.94Z" style="fill:#096055"/><path d="M156.68,76.57c.07,2,.25,4,.47,6s.48,4,.82,5.91.75,3.9,1.12,5.85c.18,1,.39,2,.57,2.93.08.49.19,1,.29,1.46s.19,1,.26,1.48l-.06,0a46.21,46.21,0,0,1-1.7-5.75,56.51,56.51,0,0,1-1-5.91q-.4-3-.63-6c-.13-2-.22-4-.2-6Z" style="fill:#096055"/><path d="M160.79,78.62a1.25,1.25,0,0,1-1.07,1.24,1.21,1.21,0,0,1-.95-.28,1.26,1.26,0,0,1-.45-1,1.3,1.3,0,0,1,.44-1,1.24,1.24,0,0,1,2,1Zm0,0a.94.94,0,0,0-.34-.72.9.9,0,0,0-.73-.18.92.92,0,0,0,0,1.81.89.89,0,0,0,.73-.18A1,1,0,0,0,160.79,78.62Z" style="fill:#096055"/><path d="M154.25,42.28s-.11,17-6.16,17.59c10.56.53,14.27-3.54,14-8.8S159.73,33.85,154.25,42.28Z" style="fill:#25323e"/><path d="M169.78,50.28c0,6.41-5.14,12.32-9.93,12.32s-7.42-5.91-7.42-12.32,3.88-11.6,8.67-11.6S169.78,43.88,169.78,50.28Z" style="fill:#fdc2d2"/><path d="M157.44,43.18a5.33,5.33,0,0,1-2.92,1.42c-1.79-1.34-2.33-4.52-.7-6.05,7.64-7.19,14.74-1.65,14.06-.07,6.74-3.74,9.79,7.83,9.29,10.75a10.94,10.94,0,0,1-4.86,7.14,13.86,13.86,0,0,1-8.48,2.08,11.09,11.09,0,0,0,4-8.46,11.22,11.22,0,0,0-3.48-8C162,39.86,159.43,41.54,157.44,43.18Z" style="fill:#25323e"/><path d="M154.82,65.38s-7.24,13.24,2.6,21.07c17-9.88,15.21-19.89,15.21-19.89l3.19.57c4.42,13.34-1.36,33-1.36,33H149.24a26.15,26.15,0,0,0-.41-13.58c-1.24-3.9-4.75-15-1-18.14A8.93,8.93,0,0,1,154.82,65.38Z" style="fill:#107d72"/></svg>