<svg xmlns="http://www.w3.org/2000/svg" xmlns:xlink="http://www.w3.org/1999/xlink" width="600" height="400" viewBox="0 0 600 400"><defs><filter id="b" x="426.56" y="-8392" width="128.05" height="32766" filterUnits="userSpaceOnUse" color-interpolation-filters="sRGB"><feFlood flood-color="#fff" result="bg"/><feBlend in="SourceGraphic" in2="bg"/></filter><mask id="a" x="426.56" y="-8392" width="128.05" height="32766" maskUnits="userSpaceOnUse"><g style="filter:url(#b)"/></mask><radialGradient id="c" cx="503.78" cy="213.44" r="124.24" gradientUnits="userSpaceOnUse"><stop offset="0" stop-color="gray"/><stop offset="1"/></radialGradient><filter id="e" x="426.56" y="69.16" width="128.05" height="198.89" filterUnits="userSpaceOnUse" color-interpolation-filters="sRGB"><feFlood flood-color="#fff" result="bg"/><feBlend in="SourceGraphic" in2="bg"/></filter><mask id="d" x="426.56" y="69.16" width="128.05" height="198.89" maskUnits="userSpaceOnUse"><g style="mask:url(#a);filter:url(#e)"><path d="M468.85,268s-49.43-91.56-41.41-128.79S469.13,75.48,527.6,69.34s3.79,144.91,3.79,144.91Z" style="mix-blend-mode:multiply;fill:url(#c)"/></g></mask><radialGradient id="f" cx="503.78" cy="213.44" r="124.24" gradientUnits="userSpaceOnUse"><stop offset="0" stop-color="#e6f5ff"/><stop offset="1" stop-color="#eee"/></radialGradient></defs><title>illustration_anime_telephone</title><g style="isolation:isolate"><path d="M545.9,280.16l-.2,0a1,1,0,0,1-.78-1.18c0-.18,3.62-18.59.3-36.73a1,1,0,0,1,2-.36c3.39,18.53-.27,37.3-.31,37.49A1,1,0,0,1,545.9,280.16Z" style="fill:#fff"/><path d="M590.88,326.79c-13.61-16.16-48.6-35.81-48.6-35.81l.92,6.88,48.29,63.93a22.22,22.22,0,0,0,2.94-4.26C593.77,349.46,592.68,338.65,590.88,326.79Z" style="fill:#dfa7b9"/><path d="M361.57,246.11s-26-62.08,6.5-76.52,6.55-55.21,17.32-73.34c17.33-29.17,31.27-21.61,41.15-53.71C439.05,1.86,489.6-2.94,516.77,4.28c19.75,5.24,36.1-2.89,53.42,19.49s26,80.13,11.55,91.68-6.92,46.92-33.2,54.14-10.11,32.48-29.6,35.37S361.57,246.11,361.57,246.11Z" style="fill:#25323e"/><path d="M534.1,264.15s9.72,39.24,9.19,43.45,52.05,64.34,52.05,64.34S592.57,290.86,568,254.05,534.1,264.15,534.1,264.15Z" style="fill:#eeb6c7"/><path d="M581.74,269.2s-2.16.13-5.48.52c-7.64.86-21.42,3.07-29.12,8.11a18.34,18.34,0,0,0-2.13,1.63.26.26,0,0,0,0,.1h0c-.05.37-.27,1.63-.58,3.65s-.74,4.84-1.22,8.28c0,.12,0,.25,0,.37-.12.87-.25,1.76-.37,2.71v0h0c-.2,1.48-.42,3.05-.62,4.71h0c-.51,3.92-1,8.26-1.55,13s-1,9.79-1.49,15.11h0q-.18,2.1-.36,4.26c0,.71-.11,1.43-.17,2.15s-.11,1.46-.16,2.18c-.22,2.92-.42,5.91-.59,8.92,0,.24,0,.48-.05.71s0,.61,0,.92c0,.69-.08,1.38-.11,2.08-.07,1.57-.15,3.16-.21,4.75,0,.27,0,.53,0,.8,0,.42,0,.85-.05,1.28,0,.1,0,.19,0,.27s0,.3,0,.47c0,1.29-.09,2.59-.12,3.9,0,.22,0,.45,0,.68,0,1-.06,2-.06,3,0,.73,0,1.46,0,2.18,0,.21,0,.42,0,.63,0,0,0,0,0,0s0,0,0,0a0,0,0,0,0,0,0,.21.21,0,0,0,0,.11c0,.11,0,.23,0,.34s0,.4,0,.6c0,.7,0,1.42,0,2.13v2.12c0,.61,0,1.27.06,2,.35,6.16,2.15,15.64,3.91,25.8H398.36c1.3-7.26,2.5-15.39,3.45-24.32A394.07,394.07,0,0,0,397.66,266c-1.41,4.46-21.93,27.79-21.93,27.79s-.5-.27-1.92-1.13c-2.57-1.55-8.12-5.05-19.09-12.47-9.74-6.57-14.61-10-16.85-11.62l0,0c-1.24-.89-1.67-1.23-1.67-1.23a164.88,164.88,0,0,1,20.54-35.39c6.44-8.38,14.34-16.66,23.62-22.81,19.56-13,43.39-21.79,67.87-23.16a113.73,113.73,0,0,1,23.08,1s9.74-.3,22.79.54c11,.71,24.37,2.23,36.24,5.45,12.16,3.3,22.76,8.37,27.6,16.18C573.08,233.48,581.74,269.2,581.74,269.2Z" style="fill:#7fb7e0"/><path d="M412.79,391.16v0c-.18,2.5-.39,5-.63,7.46,0,.35-.07.71-.12,1H398.36c1.3-7.26,2.5-15.39,3.45-24.32A394.07,394.07,0,0,0,397.66,266s7.58-17.17,9.74,14.7C408.93,303.07,415.81,347.93,412.79,391.16Z" style="fill:#5ba8ce"/><path d="M493.3,264.31s35.51,92.32,43.75,109.61q-.06-1.07-.06-2c0-15.26.9-30.71,2.11-44.51l-45.8-71.22Z" style="fill:#5ba8ce"/><path d="M412.16,398.66c-.09.35-.2.71-.3,1H384c.74-3.79,4.9-5.67,3.38-7.95-2.16-3.25-78.58-22.72-83.9-42.44s34.35-80.81,34.35-80.81l0,0,35.94,24.09s-5.29,6.63-11.27,15a0,0,0,0,1,0,0c-1.52,2.12-3.08,4.35-4.62,6.62-.42.62-.85,1.25-1.25,1.86s-.73,1.08-1.07,1.62c-.45.69-.9,1.37-1.33,2.05-.27.42-.53.84-.78,1.25s-.51.8-.75,1.2c-.74,1.21-1.44,2.4-2.09,3.54-.34.59-.67,1.18-1,1.76-.86,1.6-1.62,3.12-2.22,4.52-.24.54-.45,1.07-.63,1.58a13.15,13.15,0,0,0-.45,1.28l-.12.4a11.36,11.36,0,0,0-.38,1.71,4.91,4.91,0,0,0,.48,2.78,2.09,2.09,0,0,0,.14.3,11.71,11.71,0,0,0,1.92,2.66c.18.21.38.41.58.62s.58.58.91.87h0c10.32,9.44,37.68,20.75,51.92,31.16A47.43,47.43,0,0,1,406,378.8c4.32,4,6.32,8.23,6.8,12.36v0A19.91,19.91,0,0,1,412.16,398.66Z" style="fill:#fdc2d2"/><path d="M345.86,337c.89-6.27,9.31-19.13,16.67-29.39,0,0-19.73,11.06-26.59,21.88s13.95,14.75,13.95,14.75h0C347.09,341.66,345.54,339.23,345.86,337Z" style="fill:#eeb6c7"/><path d="M464.08,101s7.47,59.19-12.87,80.85c-19.62,20.88,26.68,43.78,41.66,15.61a11.29,11.29,0,0,0,1.29-5.9c-.34-6.27-.12-24.8,8.9-63.13C514.61,79.35,464.08,101,464.08,101Z" style="fill:#eeb6c7"/><ellipse cx="454.16" cy="86.57" rx="18.05" ry="12.34" transform="translate(331.55 532.36) rotate(-85.41)" style="fill:#fdc2d2"/><path d="M495.46,150.75l-30.52-11.5c-.27,3.81-.68,7.69-1.27,11.51.05.23,3.75,24.42,31,25.36l.78-7.12c.58-4.68,1.4-10.1,2.52-16.35C496.5,151.49,495.46,150.75,495.46,150.75Z" style="fill:#dfa7b9"/><path d="M548.54,119.06c-15.33,35-40.35,52.11-66.58,40.65s-35.07-49.18-19.75-84.22,49-54.16,75.24-42.7S563.86,84,548.54,119.06Z" style="fill:#fdc2d2"/><path d="M570.19,44,547.81,23.77l-79.4,4.33-5.26,45.3a23.52,23.52,0,0,0-3.89,8.72c-.95,4.25,0,5.29,0,5.29a13.46,13.46,0,0,1,10-6.13c7.22-1,32.71-1.7,37.53-2.6h0a48.87,48.87,0,0,0,9.41-2.24C538.73,68.49,570.19,44,570.19,44Z" style="fill:#25323e"/><g style="mask:url(#d)"><path d="M468.85,268s-49.43-91.56-41.41-128.79S469.13,75.48,527.6,69.34s3.79,144.91,3.79,144.91Z" style="fill:url(#f)"/></g><path d="M469.83,269.08s-4.85-2.76-3.95-7.27,24.72-50.17,28-52.16,28.34-1.26,31.22,0,6.47,2.34,6.32,4.6-55.78,54.6-55.78,54.6Z" style="fill:#1e1e1e"/><path d="M501.25,271.29s-30.57,1.54-32.4-3.25,24.64-53.1,29-55.41c3.86-2.07,30.15-1.37,33.58,1.62C533.84,216.39,506.63,270.36,501.25,271.29Z" style="fill:#25323e"/><path d="M488,226.92h0l-15.19,29c-2.78,6.14-4.47,10.84-4,12.17,1.83,4.79,32.4,3.25,32.4,3.25a2.15,2.15,0,0,0,.81-.4Z" style="fill:#25323e;opacity:0.5;mix-blend-mode:screen"/><path d="M591.41,345.73c-13-18.77-73.19-79.41-73.19-79.41a3.67,3.67,0,0,1-.93-4.35c2.32-3.32,21.41-46.2,7-34.69-2.28,2.62-3.46,5.32-6.77,5.11-5.07-.32-16-22.41-19.68-19.76-6.66,4.78,11.08,15-.71,25.72S490.54,259,490.54,259c2.64,5.64,5.7,11,10.35,13.12,6.5,2.88,39.7,98.89,66.41,109S604.4,364.5,591.41,345.73Z" style="fill:#fdc2d2"/><path d="M245.9,280.16l-.2,0a1,1,0,0,1-.78-1.18c0-.18,3.62-18.59.3-36.73a1,1,0,0,1,2-.36c3.39,18.53-.27,37.3-.31,37.49A1,1,0,0,1,245.9,280.16Z" style="fill:#fff"/><path d="M290.88,326.79c-13.61-16.16-48.6-35.81-48.6-35.81l.92,6.88,48.29,63.93a22.22,22.22,0,0,0,2.94-4.26C293.77,349.46,292.68,338.65,290.88,326.79Z" style="fill:#dfa7b9"/><path d="M61.57,246.11s-26-62.08,6.5-76.52,6.55-55.21,17.32-73.34c17.33-29.17,31.27-21.61,41.15-53.71C139.05,1.86,189.6-2.94,216.77,4.28c19.75,5.24,36.1-2.89,53.42,19.49s26,80.13,11.55,91.68-6.92,46.92-33.2,54.14-10.11,32.48-29.6,35.37S61.57,246.11,61.57,246.11Z" style="fill:#25323e"/><path d="M234.1,264.15s9.72,39.24,9.19,43.45,52,64.34,52,64.34S292.57,290.86,268,254.05,234.1,264.15,234.1,264.15Z" style="fill:#eeb6c7"/><path d="M281.74,269.2s-2.16.13-5.48.52c-7.64.86-21.42,3.07-29.12,8.11a18.34,18.34,0,0,0-2.13,1.63.26.26,0,0,0,0,.1h0c0,.37-.27,1.63-.58,3.65s-.74,4.84-1.22,8.28c0,.12,0,.25-.05.37-.12.87-.25,1.76-.37,2.71v0h0c-.2,1.48-.42,3.05-.62,4.71h0c-.51,3.92-1,8.26-1.55,13s-1,9.79-1.49,15.11h0q-.18,2.1-.36,4.26c-.05.71-.11,1.43-.17,2.15s-.11,1.46-.16,2.18c-.22,2.92-.42,5.91-.59,8.92,0,.24,0,.48,0,.71s0,.61-.05.92c0,.69-.08,1.38-.11,2.08-.07,1.57-.15,3.16-.21,4.75,0,.27,0,.53,0,.8,0,.42,0,.85-.05,1.28,0,.1,0,.19,0,.27s0,.3,0,.47c0,1.29-.09,2.59-.12,3.9,0,.22,0,.45,0,.68,0,1-.06,2-.06,3,0,.73,0,1.46,0,2.18,0,.21,0,.42,0,.63,0,0,0,0,0,0s0,0,0,0a0,0,0,0,0,0,0,.21.21,0,0,0,0,.11c0,.11,0,.23,0,.34s0,.4,0,.6c0,.7,0,1.42,0,2.13v2.12c0,.61,0,1.27.06,2,.35,6.16,2.15,15.64,3.91,25.8H98.36c1.3-7.26,2.5-15.39,3.45-24.32A394.07,394.07,0,0,0,97.66,266c-1.41,4.46-21.93,27.79-21.93,27.79s-.5-.27-1.92-1.13c-2.57-1.55-8.12-5.05-19.09-12.47-9.74-6.57-14.61-10-16.85-11.62l0,0c-1.24-.89-1.67-1.23-1.67-1.23a164.88,164.88,0,0,1,20.54-35.39c6.44-8.38,14.34-16.66,23.62-22.81,19.56-13,43.39-21.79,67.87-23.16a113.73,113.73,0,0,1,23.08,1s9.74-.3,22.79.54c11,.71,24.37,2.23,36.24,5.45,12.16,3.3,22.76,8.37,27.6,16.18C273.08,233.48,281.74,269.2,281.74,269.2Z" style="fill:#7fb7e0"/><path d="M112.79,391.16v0c-.18,2.5-.39,5-.63,7.46,0,.35-.07.71-.12,1H98.36c1.3-7.26,2.5-15.39,3.45-24.32A394.07,394.07,0,0,0,97.66,266s7.58-17.17,9.74,14.7C108.93,303.07,115.81,347.93,112.79,391.16Z" style="fill:#5ba8ce"/><path d="M193.3,264.31s35.51,92.32,43.75,109.61q-.06-1.07-.06-2c0-15.26.9-30.71,2.11-44.51l-45.8-71.22Z" style="fill:#5ba8ce"/><path d="M112.16,398.66c-.09.35-.2.71-.3,1H84c.74-3.79,4.9-5.67,3.38-7.95C85.24,388.51,8.82,369,3.5,349.32s34.35-80.81,34.35-80.81l0,0,35.94,24.09s-5.29,6.63-11.27,15a0,0,0,0,1,0,0c-1.52,2.12-3.08,4.35-4.62,6.62-.42.62-.85,1.25-1.25,1.86s-.73,1.08-1.07,1.62c-.45.69-.9,1.37-1.33,2.05-.27.42-.53.84-.78,1.25s-.51.8-.75,1.2c-.74,1.21-1.44,2.4-2.09,3.54-.34.59-.67,1.18-1,1.76-.86,1.6-1.62,3.12-2.22,4.52-.24.54-.45,1.07-.63,1.58a13.15,13.15,0,0,0-.45,1.28l-.12.4a11.36,11.36,0,0,0-.38,1.71,4.91,4.91,0,0,0,.48,2.78,2.09,2.09,0,0,0,.14.3,11.71,11.71,0,0,0,1.92,2.66c.18.21.38.41.58.62s.58.58.91.87h0c10.32,9.44,37.68,20.75,51.92,31.16A47.43,47.43,0,0,1,106,378.8c4.32,4,6.32,8.23,6.8,12.36v0A19.91,19.91,0,0,1,112.16,398.66Z" style="fill:#fdc2d2"/><path d="M45.86,337c.89-6.27,9.31-19.13,16.67-29.39,0,0-19.73,11.06-26.59,21.88s14,14.75,14,14.75h0C47.09,341.66,45.54,339.23,45.86,337Z" style="fill:#eeb6c7"/><path d="M164.08,101s7.47,59.19-12.87,80.85c-19.62,20.88,26.68,43.78,41.66,15.61a11.29,11.29,0,0,0,1.29-5.9c-.34-6.27-.12-24.8,8.9-63.13C214.61,79.35,164.08,101,164.08,101Z" style="fill:#eeb6c7"/><ellipse cx="154.16" cy="86.57" rx="18.05" ry="12.34" transform="translate(55.54 233.32) rotate(-85.41)" style="fill:#fdc2d2"/><path d="M195.46,150.75l-30.52-11.5c-.27,3.81-.68,7.69-1.27,11.51.05.23,3.75,24.42,31,25.36l.78-7.12c.58-4.68,1.4-10.1,2.52-16.35C196.5,151.49,195.46,150.75,195.46,150.75Z" style="fill:#dfa7b9"/><path d="M248.54,119.06c-15.33,35-40.35,52.11-66.58,40.65s-35.07-49.18-19.75-84.22,49-54.16,75.24-42.7S263.86,84,248.54,119.06Z" style="fill:#fdc2d2"/><path d="M270.19,44,247.81,23.77l-79.4,4.33-5.26,45.3a23.52,23.52,0,0,0-3.89,8.72c-.95,4.25,0,5.29,0,5.29a13.46,13.46,0,0,1,10-6.13c7.22-1,32.71-1.7,37.53-2.6h0a48.87,48.87,0,0,0,9.41-2.24C238.73,68.49,270.19,44,270.19,44Z" style="fill:#25323e"/><path d="M169.83,269.08s-4.85-2.76-4-7.27,24.72-50.17,28-52.16,28.34-1.26,31.22,0,6.47,2.34,6.32,4.6-55.78,54.6-55.78,54.6Z" style="fill:#1e1e1e"/><path d="M201.25,271.29s-30.57,1.54-32.4-3.25,24.64-53.1,29-55.41c3.86-2.07,30.15-1.37,33.58,1.62C233.84,216.39,206.63,270.36,201.25,271.29Z" style="fill:#25323e"/><path d="M188,226.92h0l-15.19,29c-2.78,6.14-4.47,10.84-4,12.17,1.83,4.79,32.4,3.25,32.4,3.25a2.15,2.15,0,0,0,.81-.4Z" style="fill:#25323e;opacity:0.5;mix-blend-mode:screen"/><path d="M291.41,345.73c-13-18.77-73.19-79.41-73.19-79.41a3.67,3.67,0,0,1-.93-4.35c2.32-3.32,21.41-46.2,7-34.69-2.28,2.62-3.46,5.32-6.77,5.11-5.07-.32-16-22.41-19.68-19.76-6.66,4.78,11.08,15-.71,25.72S190.54,259,190.54,259c2.64,5.64,5.7,11,10.35,13.12,6.5,2.88,39.7,98.89,66.41,109S304.4,364.5,291.41,345.73Z" style="fill:#fdc2d2"/></g></svg>