<?xml version="1.0" encoding="utf-8"?>
<!-- Generator: Adobe Illustrator 24.1.2, SVG Export Plug-In . SVG Version: 6.00 Build 0)  -->
<svg version="1.1" xmlns="http://www.w3.org/2000/svg" xmlns:xlink="http://www.w3.org/1999/xlink" x="0px" y="0px"
	 viewBox="0 0 350 329.1" style="enable-background:new 0 0 350 329.1;" xml:space="preserve">
<style type="text/css">
	.st0{fill:#F0F7FC;}
	.st1{fill:#D9EDFF;}
	.st2{fill:#DBCDFE;}
	.st3{fill:#0B2D4E;}
	.st4{fill:#0D329F;}
	.st5{fill:#061F33;}
	.st6{fill:#5745AD;}
	.st7{fill:#6750B8;}
	.st8{clip-path:url(#SVGID_3_);fill:#5745AD;}
	.st9{clip-path:url(#SVGID_5_);fill:#5745AD;}
	.st10{fill:#2D78D3;}
	.st11{fill:none;stroke:#0B2D4E;stroke-width:15;stroke-miterlimit:10;}
	.st12{fill:#F8A17A;}
	.st13{fill:#E5785C;}
	.st14{fill:#1F5BB1;}
	.st15{fill:#FFFFFF;}
	.st16{fill:#AFCBF6;}
	.st17{fill:#3F91AC;}
	.st18{fill:#006B68;}
	.st19{clip-path:url(#SVGID_7_);fill:#006B68;}
	.st20{fill:#E4EDF4;}
	.st21{fill:#008282;}
	.st22{fill:#76A1C1;}
	.st23{fill:#C0D5E2;}
</style>
<g id="Calque_2_1_">
	<g>
		<path class="st0" d="M101.7,276.9l0.3-0.5c-8.9-5.2-19.2-5.6-29.2-6c-4.1-0.2-8.3-0.3-12.3-0.8c-18.8-2.3-32.6-14.4-37-32.3
			c-4-16.4,0.5-33.9,11.7-45.7c0.6-0.6,1.2-1.2,1.7-1.8c3.9-4.1,7.9-8.3,10.8-13.2c1.8-3.1,3-6.5,3.6-10.1c0.5-3.3,0.4-6.8-0.2-10.4
			c-1.1-6.5-4-13.2-8.3-19.4c-1.1-1.6-2.4-3.3-3.5-4.9c-3.8-5.1-7.7-10.4-10.1-16.4c-3-7.2-3.6-16.5-1.9-26
			C30,73.8,38.8,59.7,50.8,51.8c15.5-10.3,31.9-8,49.3-5.7c7.2,1,14.7,2,22,2c1.9,0,3.8-0.1,5.7-0.2c3.4-0.3,6.7-0.9,10-1.8
			c3.3-0.9,6.5-2.1,9.6-3.6c6.3-3.1,11.9-7.4,16.4-12.6c12.9-15,30.6-23.2,47.6-23.2c7.4,0,14.6,1.6,21.3,4.8
			c13.4,6.5,24.5,18.8,30.3,33.9c3.3,8.5,4,17.8,4.6,26.8c0.6,8.4,1.2,17.1,4,25.3c1.6,4.6,3.9,9.2,6.7,13.2
			c3,4.3,6.5,7.8,10.3,10.5c10.3,7.3,17.4,14.4,22.1,22.1c6.9,11.2,8.4,24.5,4,34.7c-3.1,7.3-9.3,11.9-15.2,16.4
			c-3.1,2.3-6.2,4.8-8.9,7.5c-3,3.1-5.1,6.3-6.4,9.8c-1.1,2.9-1.6,6.2-1.5,10.2c0,4.6,0.9,9.4,1.7,14c1.4,7.8,2.9,15.9,0.2,23.6
			c-1.7,5.1-6,8.7-12.8,10.9c-4.8,1.5-10.6,2.3-17.8,2.4c-2.1,0-4.3,0-6.5,0c-8.4-0.1-17-0.1-25,2.7l0.2,0.6
			c7.8-2.8,16.4-2.7,24.7-2.7c2.1,0,4.3,0,6.5,0c7.3-0.1,13.2-0.9,18-2.5c7-2.3,11.4-6.1,13.2-11.3c2.7-7.9,1.2-16-0.2-23.9
			c-0.8-4.6-1.7-9.3-1.7-13.9c0-3.9,0.5-7.2,1.5-10c2.8-7.6,8.8-12.1,15.1-17c6-4.5,12.1-9.3,15.4-16.7c1.2-2.7,2-5.7,2.3-8.8
			c0.3-2.9,0.3-6-0.1-9.1c-0.8-5.9-3-11.9-6.3-17.3c-4.8-7.8-11.9-14.9-22.3-22.3c-7.4-5.2-13.5-13.8-16.7-23.4
			c-2.7-8.1-3.4-16.8-4-25.1c-0.6-9-1.3-18.3-4.7-27c-5.9-15.2-17-27.6-30.6-34.2c-5.8-2.8-12.1-4.4-18.6-4.8
			c-6.2-0.3-12.5,0.4-18.8,2.3c-12.1,3.6-23.6,11.1-32.2,21.1c-8.8,10.2-21.7,16.7-35.5,17.8c-9.1,0.7-18.5-0.5-27.6-1.8
			c-8.4-1.1-17-2.3-25.3-1.9c-4.5,0.2-8.5,0.9-12.4,2c-4.3,1.3-8.2,3.1-12,5.6c-6,4-11.4,9.6-15.5,16.3c-4.1,6.6-6.9,14-8.3,21.6
			c-0.8,4.6-1.1,9.1-0.8,13.3c0.3,4.8,1.2,9.1,2.8,13c2.5,6.1,6.4,11.4,10.2,16.5c1.2,1.6,2.4,3.2,3.5,4.9
			c9.5,13.5,11.3,28.2,4.9,39.2c-2.8,4.9-6.9,9.1-10.7,13.1c-0.6,0.6-1.1,1.2-1.7,1.8c-5.6,5.9-9.7,13.4-11.8,21.6
			c-2,8.1-2.1,16.6-0.1,24.6c1.1,4.5,2.8,8.8,5.1,12.6c2.3,3.7,5.1,7.1,8.3,9.9c6.5,5.6,14.8,9.2,24.1,10.4c4,0.5,8.3,0.7,12.4,0.8
			C82.7,271.4,93,271.8,101.7,276.9z"/>
	</g>
	<path class="st0" d="M302.2,131.9c7.6,10.8,13.4,25.5,9.4,39s-17,21.8-22.6,34.6c-3.2,7.2-3.3,15.2-3.4,23
		c-0.2,10.2,1.8,21-5.1,29.6c-4.1,5.1-10.2,8.1-16.4,10.1c-12.5,4-25.5,5.8-36.6,13.3c-18.2,12.3-40.6,16.6-62.3,15.3
		c-11-0.7-21.9-2.7-32.4-6c-12.2-3.7-23.1-10.4-35.5-13.9c-21.4-6.1-50.6-6.2-63.1-27.8c-8.4-14.6-11.3-32.5-4.8-48.4
		c3.1-7.5,9.1-13.3,12.4-20.7c4.7-10.2,5.9-21.9,2.8-32.8c-0.1-0.4-0.3-0.9-0.4-1.3c-3.3-10.2-9.8-18.9-12.6-29.2
		C26,95.4,38.4,72.8,54.7,59.1c6.8-5.7,14.3-10.4,22.6-13.2c22.7-7.5,48,1.2,70.8-6c17.5-5.5,31.9-19.9,49.7-24.1
		c13.7-3.2,28.5,0.2,40.1,8.6s20.1,21.4,23.9,35.8c3.6,13.3,3.5,28,9.8,40.1c5.4,10.4,15.4,16,23.6,23.5
		C297.7,126.2,300.1,128.9,302.2,131.9z"/>
	<path class="st0" d="M31.4,24.5c-0.2-1.2,1.4-3.7,3.2-3.6c0.7,0,1.4,0.2,2.1,0.2c1.9-0.1,2.8-1.5,3.6-2.7c0.7-1.2,2.2-2.6,4-2.3
		c2.6,0.4,3.9,3.9,6.9,1.3c1.9-1.7,2.1-4.1,4.3-5.7c1.5-1.1,4-1.8,6-1.2c2.7,0.8,3.6,3.4,6.5,3.9c3.1,0.5,5.4-1.9,6.4-3.6
		c1.2-2.1,1.7-4.3,2.7-6.5c1-2,2.9-4.6,6.4-4.5c2.9,0,4.2,1.9,5.7,3.4c1.9,1.9,5.7,8.8,10.1,8c1.7-0.3,2.5-1.7,4.1-2.3
		c2.5-1,5.6,0.4,7.1,2c1.5,1.7,2.1,3.7,3.7,5.3c0.4,0.4,1,0.8,1.6,1c2.3,0.6,4.5-1.3,7-1.5c1.7-0.1,3.3,0.7,4.3,1.7s1.5,2.2,2.3,3.3
		c0.2,0.3,0.5,0.6,0.8,0.8c1.1,0.6,2.6,0.1,4-0.1c3.3-0.6,7.1,1,8,3.3H31.4V24.5z"/>
	<path class="st0" d="M288.9,39.3c-0.1-0.6,0.7-1.9,1.6-1.9c0.4,0,0.7,0.1,1.1,0.1c1,0,1.5-0.8,1.8-1.4c0.4-0.6,1.1-1.3,2-1.2
		c1.3,0.2,2,2,3.6,0.7c1-0.9,1.1-2.1,2.2-2.9c0.8-0.6,2-0.9,3.1-0.6c1.4,0.4,1.9,1.8,3.3,2c1.6,0.3,2.8-1,3.3-1.8
		c0.6-1.1,0.9-2.2,1.4-3.3c0.5-1,1.5-2.4,3.3-2.3c1.5,0,2.2,1,2.9,1.7c1,1,3,4.5,5.2,4.1c0.9-0.2,1.3-0.9,2.1-1.2
		c1.3-0.5,2.9,0.2,3.6,1c0.8,0.9,1.1,1.9,1.9,2.7c0.2,0.2,0.5,0.4,0.8,0.5c1.2,0.3,2.3-0.7,3.6-0.8c0.9-0.1,1.7,0.4,2.2,0.9
		s0.8,1.1,1.2,1.7c0.1,0.2,0.2,0.3,0.4,0.4c0.6,0.3,1.4,0,2.1-0.1c1.7-0.3,3.7,0.5,4.1,1.7C345.7,39.3,288.9,39.3,288.9,39.3z"/>
	<rect x="17.1" y="168.4" class="st1" width="25.6" height="115.2"/>
	<rect x="42.7" y="203.7" class="st1" width="38.6" height="79.9"/>
	<rect x="0" y="227.5" class="st1" width="32.7" height="56.1"/>
	<rect x="21.9" y="162.8" class="st1" width="20.8" height="5.6"/>
	<rect x="25.7" y="157.1" class="st1" width="17" height="5.6"/>
	<rect x="29.3" y="151.5" class="st1" width="13.4" height="5.6"/>
	<g>
		<rect x="118.1" y="168.4" class="st1" width="25.6" height="115.2"/>
		<rect x="48.1" y="131.1" class="st1" width="25.6" height="152.5"/>
		<rect x="143.7" y="239" class="st1" width="51.2" height="44.6"/>
		<rect x="79.5" y="113.1" class="st1" width="51.4" height="170.5"/>
		<rect x="122.9" y="162.8" class="st1" width="20.8" height="5.6"/>
		<rect x="126.7" y="157.1" class="st1" width="17" height="5.6"/>
		<rect x="130.3" y="151.5" class="st1" width="13.4" height="5.6"/>
	</g>
	<g>
		<rect x="167.2" y="168.4" class="st1" width="25.6" height="115.2"/>
		<rect x="141.5" y="187.9" class="st1" width="25.6" height="95.7"/>
		<rect x="192.8" y="142.5" class="st1" width="38.6" height="141.1"/>
		<rect x="172" y="162.8" class="st1" width="20.8" height="5.6"/>
		<rect x="175.8" y="157.1" class="st1" width="17" height="5.6"/>
		<rect x="179.4" y="151.5" class="st1" width="13.4" height="5.6"/>
	</g>
	<rect x="268.2" y="168.4" class="st1" width="25.6" height="115.2"/>
	<rect x="304.8" y="150.9" class="st1" width="25.6" height="95.7"/>
	<rect x="236.6" y="171.9" class="st1" width="25.6" height="111.7"/>
	<rect x="229.6" y="199.5" class="st1" width="51.4" height="84.1"/>
	<rect x="310" y="145.8" class="st1" width="20" height="5.6"/>
	<rect x="311.7" y="222.2" class="st2" width="20.8" height="5.6"/>
	<rect x="313.7" y="140.1" class="st1" width="16.3" height="5.6"/>
	<rect x="317.1" y="134.5" class="st1" width="12.9" height="5.6"/>
	<rect x="149.7" y="198.7" class="st2" width="33.7" height="5.6"/>
	<rect x="149.7" y="218.8" class="st2" width="33.7" height="5.6"/>
	<rect x="149.7" y="239" class="st2" width="33.7" height="5.6"/>
	<rect x="289.6" y="202" class="st1" width="33.7" height="5.6"/>
	<rect x="289.6" y="222.2" class="st2" width="33.7" height="5.6"/>
	<path class="st3" d="M103.7,233.5c9.7,3.4,21.3,3.1,30.1-2.6c8.6-5.5,16.5-9.5,27.1-9.4c9.5,0.2,17.4,5.3,26.6,6.4
		c7.3,0.9,14.7-2.3,20-7.4c5.2-5,8.6-12.6,6.3-19.4c-1.2-3.6-3.7-6.5-5.2-10c-3.4-8,5.5-12.8,3.3-21.2c-1.9-7.1-9.7-12.2-9.6-19.6
		c0.1-5.4,4.3-9.6,5.7-14.6c1.5-5,1.2-10.7-1.5-15.3c-1.9-3.4-5-6.2-8.6-7.7c-3.2-1.4-6.8-1.4-9.3-4.2c-4.4-5-6.1-10.5-12.2-14.1
		c-5.2-3.1-12-3.3-17.9-2.8c-13.1,1.2-25.9,8.1-33.3,19.2c-2.6,3.9-4.5,7.9-4.6,12.6c-0.1,5.1-0.1,10.2-3.2,14.5
		c-2.6,3.6-6.8,5.8-11,7.4c-4.2,1.6-8.5,3-12.2,5.5c-3.7,2.6-6.6,6.8-6.1,11.3c0.4,3.7,2.9,7,3.3,10.7c0.6,6.8-5.9,11.7-9.9,17.2
		c-5.6,7.7-6.6,18.6-2.3,27.1c4.9,9.8,13.8,12.1,23.1,15.8C102.8,233.2,103.2,233.4,103.7,233.5z"/>
	<g>
		<path class="st4" d="M173.9,106.7c-3.2-1.9-6.9-2.7-10.6-2.9c-3.7-0.1-7.4,0.3-11,1.2c-7.2,1.8-13.8,6.1-18.4,12
			c-2.3,3-4,6.3-5.1,9.9c-1,3.6-1.3,7.4-1.2,11.1c0,3.7,0.3,7.4,0.2,11c-0.1,1.8-0.3,3.6-0.9,5.3c-0.5,1.7-1.5,3.2-2.9,4.2
			s-3.1,1.5-4.9,1.7s-3.6,0.2-5.5,0.5c-3.7,0.5-7.4,1.4-10.6,3.5c-1.6,1.1-3,2.5-3.7,4.4s-0.6,3.9-0.1,5.7c0.6,1.9,1.6,3.4,2.4,5.1
			c0.7,1.6,1.2,3.4,1.4,5.2c0.3,3.6-0.6,7.2-1.9,10.6c-1.3,3.4-2.8,6.8-3.7,10.5c-0.4,1.8-0.7,3.7-0.7,5.5c0,1.9,0.4,3.7,1,5.5
			c1.2,3.5,3.5,6.6,6.4,8.8c-2.9-2.3-5.1-5.4-6.2-8.9c-1.2-3.5-1-7.3,0-10.8c0.9-3.5,2.5-6.9,3.8-10.4c1.3-3.4,2.4-7.1,2.1-10.9
			c-0.1-1.9-0.6-3.7-1.4-5.5c-0.8-1.7-1.8-3.3-2.3-5c-0.4-1.7-0.5-3.5,0.1-5.1s1.9-2.9,3.3-3.9c3-2,6.6-2.8,10.2-3.3
			c1.8-0.2,3.6-0.2,5.5-0.4s3.8-0.7,5.4-1.9s2.6-3,3.2-4.8s0.8-3.7,0.9-5.6c0.1-3.7-0.2-7.4-0.2-11.1c-0.1-3.7,0.1-7.3,1.1-10.8
			s2.7-6.8,4.8-9.7c4.4-5.8,10.8-10.1,17.8-12c3.5-1,7.2-1.5,10.9-1.5C167,104.1,170.7,104.9,173.9,106.7z"/>
	</g>
	<path class="st5" d="M127.4,188.4c-0.3,8.3,1.6,14.6,9.2,18.7c6.1,3.3,13.3,4.4,20,4.5c11.2,0.3,23.8-2.6,32.2-10.5
		c1.5-1.4,3-3.2,3.1-5.3c0.1-1.9-0.9-3.7-1-5.6c-0.2-3.2,2.3-5.9,3.5-8.9c1.5-4,0.5-8.4-0.9-12.4c-1.3-4-3-8.1-2.8-12.3
		c0.3-5.5,3.6-10.3,6.2-15.1s4.7-10.7,2.5-15.7c-1.5-3.3-5-5.8-8.7-6.2c-3.8-0.4-7.3,4-9.7,6.4c-3.3,3.2-7,6.1-10.9,8.5
		c-5.5,3.3-11.5,5.8-16.6,9.6c-3.1,2.3-6.5,5.5-7.9,9.1c-1.7,4.1,1.3,8.1-2.3,11.9c-2.3,2.5-5.8,3.3-8.6,5.2
		C128.7,174.4,127.7,181.9,127.4,188.4z"/>
	<path class="st6" d="M189.5,235.1c-7.9-12.2-12.8-27.1-5.9-40.8c0.7-1.4,1.5-2.9,3-3.4c3.2-1.1,7.5,0.1,10.2,1.7
		c9.6,5.6,15.4,16.2,20.8,25.6c5.6,9.8,10.4,19.9,16.1,29.7c2.3,4,4.6,8,5.8,12.4c1.1,3.8,1.2,8.3-0.3,12
		c-6.3,16.3-23.6-3.7-28.9-9.7C202.7,254,195.7,244.7,189.5,235.1z"/>
	<g>
		<g>
			<path id="SVGID_1_" class="st7" d="M118.1,221.5c-2.3-9.6-3.4-19.4,1.7-26c2.3-3,6.5-5,9.8-6.5c6.6-2.9,13.4-6.7,20.4-7.9
				c7.5-1.3,15.7-2.1,23.2-0.2c4.7,1.2,9.1,3.4,13.3,5.8c3.7,2.1,8.2,3.8,9.9,7.7c4.3,9.3,8.1,19,11.3,28.8c2.7,8.2,5.6,16.7,1.4,25
				c-1.4,2.7-3.3,5-4.9,7.5c-1.7,2.9-2.4,5.5-2.6,8.8c-0.5,7.5-0.3,15-0.3,22.5c0,2.2,0,4.4-1,6.4c-1.9,3.8-6.9,3.9-10.6,3.9
				c-12.1,0-24.1,0-36.2-0.1c-5,0-8.9,0.6-13.6,1.6c-4,0.8-7.4-1.2-9.3-4.9c-1.8-3.5-1.9-7.6-2.1-11.5c-0.8-15.3-2.9-30.5-6.5-45.3
				C121.2,232.8,119.4,227.3,118.1,221.5z"/>
		</g>
		<g>
			<defs>
				<path id="SVGID_2_" d="M118.1,221.5c-2.3-9.6-3.4-19.4,1.7-26c2.3-3,6.5-5,9.8-6.5c6.6-2.9,13.4-6.7,20.4-7.9
					c7.5-1.3,15.7-2.1,23.2-0.2c4.7,1.2,9.1,3.4,13.3,5.8c3.7,2.1,8.2,3.8,9.9,7.7c4.3,9.3,8.1,19,11.3,28.8
					c2.7,8.2,5.6,16.7,1.4,25c-1.4,2.7-3.3,5-4.9,7.5c-1.7,2.9-2.4,5.5-2.6,8.8c-0.5,7.5-0.3,15-0.3,22.5c0,2.2,0,4.4-1,6.4
					c-1.9,3.8-6.9,3.9-10.6,3.9c-12.1,0-24.1,0-36.2-0.1c-5,0-8.9,0.6-13.6,1.6c-4,0.8-7.4-1.2-9.3-4.9c-1.8-3.5-1.9-7.6-2.1-11.5
					c-0.8-15.3-2.9-30.5-6.5-45.3C121.2,232.8,119.4,227.3,118.1,221.5z"/>
			</defs>
			<clipPath id="SVGID_3_">
				<use xlink:href="#SVGID_2_"  style="overflow:visible;"/>
			</clipPath>
			<path class="st8" d="M146,193.6c-2.8-4.8-3.5-10.7,0.2-15.3c1.7-2.1,4.7-2.3,7.3-2.4c5.1-0.1,10.1,0.4,15.1,1.6
				c4.7,1.1,9.5,3,11.5,7.7c1.5,3.5,1,7.6-1,10.8c-1.8,2.9-4.8,5.1-8.2,5.9c-5.4,1.3-11.7,1.1-16.9-1.1
				C150.8,199.4,147.9,196.8,146,193.6z"/>
		</g>
		<g>
			<defs>
				<path id="SVGID_4_" d="M118.1,221.5c-2.3-9.6-3.4-19.4,1.7-26c2.3-3,6.5-5,9.8-6.5c6.6-2.9,13.4-6.7,20.4-7.9
					c7.5-1.3,15.7-2.1,23.2-0.2c4.7,1.2,9.1,3.4,13.3,5.8c3.7,2.1,8.2,3.8,9.9,7.7c4.3,9.3,8.1,19,11.3,28.8
					c2.7,8.2,5.6,16.7,1.4,25c-1.4,2.7-3.3,5-4.9,7.5c-1.7,2.9-2.4,5.5-2.6,8.8c-0.5,7.5-0.3,15-0.3,22.5c0,2.2,0,4.4-1,6.4
					c-1.9,3.8-6.9,3.9-10.6,3.9c-12.1,0-24.1,0-36.2-0.1c-5,0-8.9,0.6-13.6,1.6c-4,0.8-7.4-1.2-9.3-4.9c-1.8-3.5-1.9-7.6-2.1-11.5
					c-0.8-15.3-2.9-30.5-6.5-45.3C121.2,232.8,119.4,227.3,118.1,221.5z"/>
			</defs>
			<clipPath id="SVGID_5_">
				<use xlink:href="#SVGID_4_"  style="overflow:visible;"/>
			</clipPath>
			<path class="st9" d="M113.8,265.5c0-7.4,0.1-14.7,0.1-22.1c0-2.6-1.7-18.2,2.3-18c0.4,0,0.8,0.2,1.2,0.5c2,1.4,3,3.8,3.9,6.1
				c2.9,7.1,5.3,18.4,11.4,23.4c6.2,5,15.6,7.2,23.3,8.4c8.9,1.4,18,1.5,27,2.1c5.8,0.4,12.3,1.2,16.1,5.6c2.7,3.2,4.1,7.9,5.6,11.7
				c1.3,3.4,2.3,7.4-0.3,10.4c-1.1,1.3-2.6,2.2-4.2,2.9c-5.6,2.7-11.8,4-17.9,5c-17.2,2.9-34.7,3.5-52.1,2.6
				c-3.7-0.2-7.8-0.5-10.5-3.1c-2-1.9-3-4.6-3.7-7.3C113.7,284.5,113.7,275,113.8,265.5z"/>
		</g>
	</g>
	<path class="st10" d="M196,139.7c6.6,6.8,0.6,23.3-9.9,20.9c-11.3-2.6-9.6-20.1,0.6-23C190.8,136.5,193.9,137.6,196,139.7z"/>
	<path class="st11" d="M106.2,232.4c-6.6,0.8-13.5,0.3-19.4-2.8c-7.5-3.9-11.3-11.1-11.4-19.4c-0.1-6,1-12.3,4.7-17
		c3.9-5.2,10.5-8.4,13-14.4c1.6-3.9,1.2-9.2-1.9-12.3c-2-1.9-3.6-4.1-3.3-7c0.4-4.3,3.5-8.3,7-10.6c5.1-3.4,11.4-4.6,17.4-5.4
		c4-0.5,8.1-1.6,9.3-6c0.7-2.3,0.5-4.8,0.7-7.2c0.3-5.1,0.6-10.3,1.4-15.4c0.9-5.9,4.7-11.6,9-15.6c0.6-0.6,1.2-1.1,1.9-1.7
		c11-8.9,31.3-12,43.4-3.8c4.1,2.8,7,7.1,7.9,12c0.6,3.3,1.5,4,4.7,5c5.8,1.8,12.4,3.1,17.1,7.4c3.6,3.3,5.3,8.4,4.8,13.3
		c-0.6,6.2-5,9.2-8.1,14.1c-3.2,5-0.7,11.3,3,15.5c2.8,3.2,6.9,5.5,8.5,9.5c1.5,3.6,0.5,7.8-1.3,11.3c-0.7,1.4-1.6,2.8-2.2,4.2
		c-1.9,4.4-1.7,9.7,0.5,14"/>
	<path class="st7" d="M87.5,242c-2,3.6-4,7.3-6,11c-4,7.4-11.4,24,0.5,28.1c6,2.1,9.4,0,13.4-4.3c15-16.5,27.7-35,37.8-54.8
		c3.8-7.4,13.8-26.6,1.6-31c-3.8-1.4-8.3-1.1-11.8,0.9c-1.6,0.9-3.1,2.1-4.5,3.3c-8.8,7.8-15,17.9-20.5,28.1
		C94.5,229.5,91,235.7,87.5,242z"/>
	<path class="st12" d="M156.3,196c-3.6-1.2-6.6-3.4-7.7-7c-1-3.2,0.6-6.9,0.9-10.2c0.3-3.1,0.3-6.3,0.1-9.4c-0.2-2.9-0.5-5.9,0-8.8
		c0.3-1.7,1.2-1.4,2.8-2c1.7-0.7,3.5-0.7,5.4-0.7c3.7,0,13.4-0.3,15.7,3c1.1,1.5,1.1,3.4,1.2,5.2c0.1,2.2,0.4,4.9,0.8,8
		c0.2,1.3,0.1,2.7,0.3,4c0.2,1.5,0.8,2.9,1.3,4.3c1.9,5.4,0.1,10.5-5.7,13C167.1,197.1,161.1,197.5,156.3,196z"/>
	<path class="st13" d="M149.5,160.6c0.3-1.7,1.2-1.4,2.8-2c1.7-0.7,3.5-0.7,5.4-0.7c3.7,0,13.4-0.3,15.7,3c1.1,1.5,1.1,3.4,1.2,5.2
		c0.1,2.2,0.4,4.9,0.8,8c0.2,1.3,0.1,2.7,0.3,4c0.2,1.1,0.5,2.2,0.9,3.3c-3.6,1.3-7.7,1.6-11.4,0.7c-6.8-1.7-11.9-5.9-15.6-11.4
		c0-0.4,0-0.9-0.1-1.3C149.4,166.5,149.1,163.5,149.5,160.6z"/>
	<path class="st12" d="M144.1,139.4c0-5,0.7-9.7,2-13.6c5.5-16.9,26.6-21.1,39.3-8.9c14.1,13.5,8.7,45.8-6.2,57.2
		c-4,3-9.4,4.1-14.2,2.8C150.4,172.9,144,154.9,144.1,139.4z"/>
	<path class="st12" d="M146.9,139.8c-6.5-3.5-8.5,5.4-7.4,9.9c0.5,1.8,1.2,3.6,2.3,5.2c1.5,2,6,5.4,8.5,3.2c1.2-1,1.3-2.7,1.3-4.3
		C151.8,149.6,151.3,142.2,146.9,139.8z"/>
	<g>
		<path class="st14" d="M168,169.3c1.6,0,3.2-0.1,4.8-0.4l-0.3-1.9c-5.8,0.9-11.6,0-16.8-2.3c-1.4-0.6-2.6-1.3-3.6-2.1
			c-1.9-1.4-3.5-3.2-4.7-5.2l-1.7,1c1.3,2.3,3.1,4.3,5.2,5.8c1.1,0.8,2.4,1.6,4,2.3C159,168.4,163.5,169.3,168,169.3z"/>
	</g>
	<g>
		<path class="st14" d="M178.5,165.5c-2.4-2-7.6-1.9-9.4,0.3c-1.3,1.6-0.9,3.6,0.5,4.9c1.7,1.6,3.8,1.5,5.8,1
			C178.1,171,181.3,167.9,178.5,165.5z"/>
	</g>
	<path class="st13" d="M144.1,126.5c5.8-17.8,28-22.2,41.3-9.4c2.9,2.8,5.1,6.4,6.5,10.5c-0.3,0.5-0.6,0.9-1,1.4
		c-1.8,2.1-4.4,3.5-6.9,4.7c-7.4,3.4-15.4,5.5-23.5,7c-0.6,0.1-1.2,0.2-1.8,0.3c-2.2,0.4-4.4,1-6.4,2.1c-5.5,3.2-3.1,10.3-7.1,13.4
		c-0.4,0.3-0.7,0.5-1.1,0.6c-1.5-5.3-2.2-10.9-2.1-16.3C142,135.6,142.8,130.6,144.1,126.5z"/>
	<path class="st3" d="M158.1,138.9c-2.1,0.8-4.2,1.7-5.9,3.1c-4.9,4.1-1.4,10.7-4.9,14.4c-3.1,3.3-7.7-1.1-8.9-4.1
		c-2.2-5.6-2.1-11.8-1.9-17.8c0.1-3.4,0.2-6.8,1.2-10c1.1-3.5,3.2-6.6,5.7-9.3c7.2-7.8,18-11.8,28.6-11.1
		c8.2,0.5,22.6,7.4,16.2,17.9c-1.5,2.4-3.7,4.2-6.1,5.7c-6.8,4.6-14.4,7.8-22.1,10.6C159.3,138.5,158.7,138.7,158.1,138.9z"/>
	<path class="st10" d="M144.2,137.2c9.1,2.3,12.7,19.6,2.5,23c-11,3.7-18.7-12.2-11.5-20C138,137.2,141.2,136.5,144.2,137.2z"/>
	<path class="st14" d="M141.2,139.4c6.3,1,10.2,14.4,3.7,18.1c-7,4-13.6-8-9.4-14.9C137,140,139.2,139.1,141.2,139.4z"/>
	<g>
		<path class="st10" d="M139.9,138.4l2.4-0.3c-1.7-14.3-0.9-32.6,11.8-38.4c6-2.8,23.3-5.8,31,4.4c0.9,1,1.5,1.9,1.5,1.9
			c-4.7-14.6-27-11.6-33.5-8.6C139,104,138.2,123.3,139.9,138.4z"/>
	</g>
	<rect y="282.8" class="st15" width="350" height="45.4"/>
	<rect x="186" y="273.1" class="st10" width="49.9" height="9.8"/>
	<path class="st10" d="M227.3,274l12.6-64.2c0.3-1.7,1.8-2.9,3.5-2.9h83.8c1.2,0,2.3,0.6,2.9,1.5l0,0l3.9,4.6l-3.4-0.8l-12.4,63.2
		c-0.3,1.7-1.8,2.9-3.5,2.9h-83.8C228.6,278.3,226.9,276.2,227.3,274z"/>
	<path class="st14" d="M318.5,282.8h-83.8c-2.3,0-4-2.1-3.5-4.3l12.6-64.2c0.3-1.7,1.8-2.9,3.5-2.9h83.8c2.3,0,4,2.1,3.5,4.3
		L322,279.9C321.7,281.6,320.2,282.8,318.5,282.8z"/>
	<path class="st16" d="M292.1,245.5c-0.8,4.3-4.9,7.8-9.2,7.8c-4.3,0-7.2-3.5-6.3-7.8c0.8-4.3,5-7.8,9.2-7.8
		C290.1,237.7,292.9,241.2,292.1,245.5z"/>
	<path class="st17" d="M334.7,214.4"/>
	<g>
		<g>
			<path class="st15" d="M51.6,244.5c-0.9-1.9-0.8-3.9-0.2-5.7c0.6-1.9,1.6-3.5,2.6-5.2c1.1-1.7,2.2-3.6,2.9-5.9
				c0.7-2.3,0.5-4.9-0.1-7c-1.4-4.4-4.2-7.7-6.1-11c-1-1.7-1.8-3.4-2.1-5.3c-0.4-1.9-0.2-3.9,0.7-5.8c-1.6,1.4-2.4,3.7-2.5,5.9
				s0.5,4.5,1.3,6.5c1.7,4,4.2,7.3,5.2,10.8c0.6,1.7,0.7,3.4,0.3,5.1c-0.3,1.7-1.2,3.5-2.1,5.4c-0.9,1.9-1.7,4-1.9,6.2
				C49.5,240.6,50,243.1,51.6,244.5z"/>
		</g>
	</g>
	<path class="st10" d="M50.7,282.6L50.7,282.6c6.9,0,12.4-5.6,12.4-12.4V247H38.3v23.2C38.3,277,43.8,282.6,50.7,282.6z"/>
	<path class="st10" d="M25.7,266c0,6.1,4.8,11,10.8,11s10.8-4.9,10.8-11s-4.8-11-10.8-11C30.6,255,25.7,259.9,25.7,266z M29.6,266
		c0-3.9,3.1-7.1,7-7.1c3.8,0,7,3.2,7,7.1s-3.1,7.1-7,7.1C32.7,273,29.6,269.9,29.6,266z"/>
	<path class="st1" d="M59.4,269.1L59.4,269.1c0.7,0,1.3-0.6,1.3-1.3v-17.4c0-0.7-0.6-1.3-1.3-1.3l0,0c-0.7,0-1.3,0.6-1.3,1.3v17.4
		C58.1,268.5,58.7,269.1,59.4,269.1z"/>
	<path class="st14" d="M44,247v29.4c0,3.5,2.8,6.3,6.3,6.3h-5.7c-3.5,0-6.3-2.8-6.3-6.3V247H44z"/>
	<path class="st7" d="M145.9,268c-1-0.2-2-0.3-3.1-0.5c-5-0.8-9.9-1.7-14.9-2.8c-9.8-2.1-19.6-4-29.6-4.9c-1.1-0.1-2.1-0.2-3.2-0.3
		c-4.5-0.3-9.1-0.4-13.2,1.7s-7.3,7.2-6.3,12c0.7,3.4,3.3,6,6.2,7.3c2.9,1.3,6.1,1.5,9.2,1.7c10.2,0.7,20.3,1.4,30.5,2.1
		c5,0.3,10.1,0.7,15.1,1c4.8,0.3,9.7,1,14.5,1c2,0,4.3-0.4,6-1.7c2.4-1.9,3.8-5.9,4-9.1c0.1-1.6-0.2-3.6-1.4-4.6
		c-0.7-0.5-1.5-0.7-2.3-0.9C153.6,269.4,149.8,268.7,145.9,268z"/>
	<path class="st12" d="M157.3,283.5c2.5,0.5,4.4,2.7,6.8,3.4c1.7,0.5,3.6,0.2,5.3-0.4c1.5-0.6,3.1-0.9,4.7-1.4
		c1.2-0.4,2.9-1.2,4.2-1c3.5,0.7,6.9,3.2,10.1,4.8c0.7,0.4,1.5,0.7,2.3,0.6s1.4-1.1,1-1.8c0.9,0.8,2.1,2.5,3.6,1.9
		c0.6-0.3,1-1.1,0.6-1.6c0.5,0.6,1,1.1,1.7,1.4s1.6,0.2,2-0.5c0.2-0.3,0.3-0.7,0.3-1c0.1-1.2-0.3-2.4-0.8-3.5
		c-2.5-5.4-8.1-9.4-12.9-12.6c-0.8-0.6-1.7-1.1-2.7-1.4c-0.9-0.3-1.8-0.3-2.7-0.3c-5.9,0-11.8,0.9-17.4,2.8
		c-1.2,0.4-2.5,0.1-3.8-0.2c-0.9-0.2-1.8-0.3-2.7-0.1c-1,0.3-1.7,1.1-2.3,1.9c-1.1,1.5-1.9,3.5-1.8,5.4c0.1,1.5,0.2,3,1.9,3.3
		c0.7,0.1,1.4,0,2.1,0.1C157,283.4,157.2,283.4,157.3,283.5z"/>
</g>
<g id="Calque_3">
	<g>
		<path class="st0" d="M101.3,277.5l0.3-0.5c-8.9-5.2-19.2-5.6-29.2-6c-4.1-0.2-8.3-0.3-12.3-0.8c-18.8-2.3-32.6-14.4-37-32.3
			c-4-16.4,0.5-33.9,11.7-45.7c0.6-0.6,1.2-1.2,1.7-1.8c3.9-4.1,7.9-8.3,10.8-13.2c1.8-3.1,3-6.5,3.6-10.1c0.5-3.3,0.4-6.8-0.2-10.4
			c-1.1-6.5-4-13.2-8.3-19.4c-1.1-1.6-2.4-3.3-3.5-4.9c-3.8-5.1-7.7-10.4-10.1-16.4c-3-7.2-3.6-16.5-1.9-26
			c2.8-15.6,11.6-29.6,23.5-37.6c15.5-10.3,31.9-8,49.3-5.7c7.2,1,14.7,2,22,2c1.9,0,3.8-0.1,5.7-0.2c3.4-0.3,6.7-0.9,10-1.8
			c3.3-0.9,6.5-2.1,9.6-3.6c6.3-3.1,11.9-7.4,16.4-12.6C176.3,15.5,194,7.3,211,7.3c7.4,0,14.6,1.6,21.3,4.8
			c13.4,6.5,24.5,18.8,30.3,33.9c3.3,8.5,4,17.8,4.6,26.8c0.6,8.4,1.2,17.1,4,25.3c1.6,4.6,3.9,9.2,6.7,13.2
			c3,4.3,6.5,7.8,10.3,10.5c10.3,7.3,17.4,14.4,22.1,22.1c6.9,11.2,8.4,24.5,4,34.7c-3.1,7.3-9.3,11.9-15.2,16.4
			c-3.1,2.3-6.2,4.8-8.9,7.5c-3,3.1-5.1,6.3-6.4,9.8c-1.1,2.9-1.6,6.2-1.5,10.2c0,4.6,0.9,9.4,1.7,14c1.4,7.8,2.9,15.9,0.2,23.6
			c-1.7,5.1-6,8.7-12.8,10.9c-4.8,1.5-10.6,2.3-17.8,2.4c-2.1,0-4.3,0-6.5,0c-8.4-0.1-17-0.1-25,2.7l0.2,0.6
			c7.8-2.8,16.4-2.7,24.7-2.7c2.1,0,4.3,0,6.5,0c7.3-0.1,13.2-0.9,18-2.5c7-2.3,11.4-6.1,13.2-11.3c2.7-7.9,1.2-16-0.2-23.9
			c-0.8-4.6-1.7-9.3-1.7-13.9c0-3.9,0.5-7.2,1.5-10c2.8-7.6,8.8-12.1,15.1-17c6-4.5,12.1-9.3,15.4-16.7c1.2-2.7,2-5.7,2.3-8.8
			c0.3-2.9,0.3-6-0.1-9.1c-0.8-5.9-3-11.9-6.3-17.3c-4.8-7.8-11.9-14.9-22.3-22.3c-7.4-5.2-13.5-13.8-16.7-23.4
			c-2.7-8.1-3.4-16.8-4-25.1c-0.6-9-1.3-18.3-4.7-27c-5.9-15.2-17-27.6-30.6-34.2c-5.8-2.8-12.1-4.4-18.6-4.8
			c-6.2-0.3-12.5,0.4-18.8,2.3c-12.1,3.6-23.6,11.1-32.2,21.1c-8.8,10.2-21.7,16.7-35.5,17.8c-9.1,0.7-18.5-0.5-27.6-1.8
			c-8.4-1.1-17-2.3-25.3-1.9c-4.5,0.2-8.5,0.9-12.4,2c-4.3,1.3-8.2,3.1-12,5.6c-6,4-11.4,9.6-15.5,16.3c-4.1,6.6-6.9,14-8.3,21.6
			c-0.8,4.6-1.1,9.1-0.8,13.3c0.3,4.8,1.2,9.1,2.8,13c2.5,6.1,6.4,11.4,10.2,16.5c1.2,1.6,2.4,3.2,3.5,4.9
			c9.5,13.5,11.3,28.2,4.9,39.2c-2.8,4.9-6.9,9.1-10.7,13.1c-0.6,0.6-1.1,1.2-1.7,1.8c-5.6,5.9-9.7,13.4-11.8,21.6
			c-2,8.1-2.1,16.6-0.1,24.6c1.1,4.5,2.8,8.8,5.1,12.6c2.3,3.7,5.1,7.1,8.3,9.9c6.5,5.6,14.8,9.2,24.1,10.4c4,0.5,8.3,0.7,12.4,0.8
			C82.4,272,92.6,272.4,101.3,277.5z"/>
	</g>
	<path class="st0" d="M301.8,132.5c7.6,10.8,13.4,25.5,9.4,39c-4,13.5-17,21.8-22.6,34.6c-3.2,7.2-3.3,15.2-3.4,23
		c-0.2,10.2,1.8,21-5.1,29.6c-4.1,5.1-10.2,8.1-16.4,10.1c-12.5,4-25.5,5.8-36.6,13.3c-18.2,12.3-40.6,16.6-62.3,15.3
		c-11-0.7-21.9-2.7-32.4-6c-12.2-3.7-23.1-10.4-35.5-13.9c-21.4-6.1-50.6-6.2-63.1-27.8c-8.4-14.6-11.3-32.5-4.8-48.4
		c3.1-7.5,9.1-13.3,12.4-20.7c4.7-10.2,5.9-21.9,2.8-32.8c-0.1-0.4-0.3-0.9-0.4-1.3c-3.3-10.2-9.8-18.9-12.6-29.2
		C25.7,96,38.1,73.4,54.4,59.7C61.2,54,68.7,49.2,77,46.5c22.7-7.5,48,1.2,70.8-6c17.5-5.5,31.9-19.9,49.7-24.1
		c13.7-3.2,28.5,0.2,40.1,8.6c11.6,8.4,20.1,21.4,23.9,35.8c3.6,13.3,3.5,28,9.8,40.1c5.4,10.4,15.4,16,23.6,23.5
		C297.4,126.8,299.7,129.5,301.8,132.5z"/>
	<path class="st0" d="M31,25.1c-0.2-1.2,1.4-3.7,3.2-3.6c0.7,0,1.4,0.2,2.1,0.2c1.9-0.1,2.8-1.5,3.6-2.7c0.7-1.2,2.2-2.6,4-2.3
		c2.6,0.4,3.9,3.9,6.9,1.3c1.9-1.7,2.1-4.1,4.3-5.7c1.5-1.1,4-1.8,6-1.2c2.7,0.8,3.6,3.4,6.5,3.9c3.1,0.5,5.4-1.9,6.4-3.6
		c1.2-2.1,1.7-4.3,2.7-6.5c1-2,2.9-4.6,6.4-4.5c2.9,0,4.2,1.9,5.7,3.4c1.9,1.9,5.7,8.8,10.1,8c1.7-0.3,2.5-1.7,4.1-2.3
		c2.5-1,5.6,0.4,7.1,2c1.5,1.7,2.1,3.7,3.7,5.3c0.4,0.4,1,0.8,1.6,1c2.3,0.6,4.5-1.3,7-1.5c1.7-0.1,3.3,0.7,4.3,1.7
		c1,1,1.5,2.2,2.3,3.3c0.2,0.3,0.5,0.6,0.8,0.8c1.1,0.6,2.6,0.1,4-0.1c3.3-0.6,7.1,1,8,3.3H31z"/>
	<path class="st0" d="M288.6,39.9c-0.1-0.6,0.7-1.9,1.6-1.9c0.4,0,0.7,0.1,1.1,0.1c1,0,1.5-0.8,1.8-1.4c0.4-0.6,1.1-1.3,2-1.2
		c1.3,0.2,2,2,3.6,0.7c1-0.9,1.1-2.1,2.2-2.9c0.8-0.6,2-0.9,3.1-0.6c1.4,0.4,1.9,1.8,3.3,2c1.6,0.3,2.8-1,3.3-1.8
		c0.6-1.1,0.9-2.2,1.4-3.3c0.5-1,1.5-2.4,3.3-2.3c1.5,0,2.2,1,2.9,1.7c1,1,3,4.5,5.2,4.1c0.9-0.2,1.3-0.9,2.1-1.2
		c1.3-0.5,2.9,0.2,3.6,1c0.8,0.9,1.1,1.9,1.9,2.7c0.2,0.2,0.5,0.4,0.8,0.5c1.2,0.3,2.3-0.7,3.6-0.8c0.9-0.1,1.7,0.4,2.2,0.9
		c0.5,0.5,0.8,1.1,1.2,1.7c0.1,0.2,0.2,0.3,0.4,0.4c0.6,0.3,1.4,0,2.1-0.1c1.7-0.3,3.7,0.5,4.1,1.7H288.6z"/>
	<rect x="16.7" y="169" class="st1" width="25.6" height="115.2"/>
	
		<rect x="42.3" y="204.3" transform="matrix(-1 -4.492729e-11 4.492729e-11 -1 123.2591 488.5313)" class="st1" width="38.6" height="79.9"/>
	
		<rect x="0" y="228.1" transform="matrix(-1 -4.575152e-11 4.575152e-11 -1 37.9293 512.3048)" class="st1" width="37.9" height="56.1"/>
	<rect x="21.5" y="163.3" class="st1" width="20.8" height="5.6"/>
	<rect x="25.3" y="157.7" class="st1" width="17" height="5.6"/>
	<rect x="28.9" y="152.1" class="st1" width="13.4" height="5.6"/>
	<g>
		<rect x="117.8" y="169" class="st1" width="25.6" height="115.2"/>
		<rect x="47.7" y="131.7" class="st1" width="25.6" height="152.5"/>
		<rect x="143.4" y="239.6" class="st1" width="51.2" height="44.6"/>
		<rect x="79.1" y="113.7" class="st1" width="51.4" height="170.5"/>
		<rect x="122.6" y="163.3" class="st1" width="20.8" height="5.6"/>
		<rect x="126.4" y="157.7" class="st1" width="17" height="5.6"/>
		<rect x="130" y="152.1" class="st1" width="13.4" height="5.6"/>
	</g>
	<g>
		<rect x="166.8" y="169" class="st1" width="25.6" height="115.2"/>
		
			<rect x="141.2" y="188.5" transform="matrix(-1 -4.491353e-11 4.491353e-11 -1 308.019 472.6479)" class="st1" width="25.6" height="95.7"/>
		
			<rect x="192.4" y="143.1" transform="matrix(-1 -4.483270e-11 4.483270e-11 -1 423.4327 427.3335)" class="st1" width="38.6" height="141.1"/>
		<rect x="171.6" y="163.3" class="st1" width="20.8" height="5.6"/>
		<rect x="175.4" y="157.7" class="st1" width="17" height="5.6"/>
		<rect x="179" y="152.1" class="st1" width="13.4" height="5.6"/>
	</g>
	<rect x="267.9" y="169" class="st1" width="25.6" height="115.2"/>
	<rect x="304.4" y="151.5" class="st1" width="25.6" height="95.7"/>
	<rect x="236.2" y="172.5" class="st1" width="25.6" height="111.7"/>
	<rect x="229.2" y="200.1" class="st1" width="51.4" height="84.1"/>
	<rect x="309.7" y="146.3" class="st1" width="20" height="5.6"/>
	<rect x="311.3" y="222.8" class="st2" width="20.8" height="5.6"/>
	<rect x="313.3" y="140.7" class="st1" width="16.3" height="5.6"/>
	<rect x="316.8" y="135.1" class="st1" width="12.9" height="5.6"/>
	<rect x="149.3" y="199.2" class="st2" width="33.7" height="5.6"/>
	<rect x="149.3" y="219.4" class="st2" width="33.7" height="5.6"/>
	<rect x="149.3" y="239.6" class="st2" width="33.7" height="5.6"/>
	<rect x="289.3" y="202.6" class="st1" width="33.7" height="5.6"/>
	<rect x="289.3" y="222.8" class="st2" width="33.7" height="5.6"/>
	<path class="st3" d="M103.3,234.1c9.7,3.4,21.3,3.1,30.1-2.6c8.6-5.5,16.5-9.5,27.1-9.4c9.5,0.2,17.4,5.3,26.6,6.4
		c7.3,0.9,14.7-2.3,20-7.4c5.2-5,8.6-12.6,6.3-19.4c-1.2-3.6-3.7-6.5-5.2-10c-3.4-8,5.5-12.8,3.3-21.2c-1.9-7.1-9.7-12.2-9.6-19.6
		c0.1-5.4,4.3-9.6,5.7-14.6c1.5-5,1.2-10.7-1.5-15.3c-1.9-3.4-5-6.2-8.6-7.7c-3.2-1.4-6.8-1.4-9.3-4.2c-4.4-5-6.1-10.5-12.2-14.1
		c-5.2-3.1-12-3.3-17.9-2.8c-13.1,1.2-25.9,8.1-33.3,19.2c-2.6,3.9-4.5,7.9-4.6,12.6c-0.1,5.1-0.1,10.2-3.2,14.5
		c-2.6,3.6-6.8,5.8-11,7.4c-4.2,1.6-8.5,3-12.2,5.5c-3.7,2.6-6.6,6.8-6.1,11.3c0.4,3.7,2.9,7,3.3,10.7c0.6,6.8-5.9,11.7-9.9,17.2
		c-5.6,7.7-6.6,18.6-2.3,27.1c4.9,9.8,13.8,12.1,23.1,15.8C102.4,233.8,102.8,234,103.3,234.1z"/>
	<g>
		<path class="st4" d="M173.5,107.3c-3.2-1.9-6.9-2.7-10.6-2.9c-3.7-0.1-7.4,0.3-11,1.2c-7.2,1.8-13.8,6.1-18.4,12
			c-2.3,3-4,6.3-5.1,9.9c-1,3.6-1.3,7.4-1.2,11.1c0,3.7,0.3,7.4,0.2,11c-0.1,1.8-0.3,3.6-0.9,5.3c-0.5,1.7-1.5,3.2-2.9,4.2
			c-1.4,1-3.1,1.5-4.9,1.7c-1.8,0.2-3.6,0.2-5.5,0.5c-3.7,0.5-7.4,1.4-10.6,3.5c-1.6,1.1-3,2.5-3.7,4.4c-0.7,1.9-0.6,3.9-0.1,5.7
			c0.6,1.9,1.6,3.4,2.4,5.1c0.7,1.6,1.2,3.4,1.4,5.2c0.3,3.6-0.6,7.2-1.9,10.6c-1.3,3.4-2.8,6.8-3.7,10.5c-0.4,1.8-0.7,3.7-0.7,5.5
			c0,1.9,0.4,3.7,1,5.5c1.2,3.5,3.5,6.6,6.4,8.8c-2.9-2.3-5.1-5.4-6.2-8.9c-1.2-3.5-1-7.3,0-10.8c0.9-3.5,2.5-6.9,3.8-10.4
			c1.3-3.4,2.4-7.1,2.1-10.9c-0.1-1.9-0.6-3.7-1.4-5.5c-0.8-1.7-1.8-3.3-2.3-5c-0.4-1.7-0.5-3.5,0.1-5.1c0.6-1.6,1.9-2.9,3.3-3.9
			c3-2,6.6-2.8,10.2-3.3c1.8-0.2,3.6-0.2,5.5-0.4c1.9-0.2,3.8-0.7,5.4-1.9c1.6-1.2,2.6-3,3.2-4.8c0.6-1.8,0.8-3.7,0.9-5.6
			c0.1-3.7-0.2-7.4-0.2-11.1c-0.1-3.7,0.1-7.3,1.1-10.8c1-3.5,2.7-6.8,4.8-9.7c4.4-5.8,10.8-10.1,17.8-12c3.5-1,7.2-1.5,10.9-1.5
			C166.6,104.7,170.3,105.5,173.5,107.3z"/>
	</g>
	<path class="st5" d="M127,189c-0.3,8.3,1.6,14.6,9.2,18.7c6.1,3.3,13.3,4.4,20,4.5c11.2,0.3,23.8-2.6,32.2-10.5
		c1.5-1.4,3-3.2,3.1-5.3c0.1-1.9-0.9-3.7-1-5.6c-0.2-3.2,2.3-5.9,3.5-8.9c1.5-4,0.5-8.4-0.9-12.4c-1.3-4-3-8.1-2.8-12.3
		c0.3-5.5,3.6-10.3,6.2-15.1c2.6-4.8,4.7-10.7,2.5-15.7c-1.5-3.3-5-5.8-8.7-6.2c-3.8-0.4-7.3,4-9.7,6.4c-3.3,3.2-7,6.1-10.9,8.5
		c-5.5,3.3-11.5,5.8-16.6,9.6c-3.1,2.3-6.5,5.5-7.9,9.1c-1.7,4.1,1.3,8.1-2.3,11.9c-2.3,2.5-5.8,3.3-8.6,5.2
		C128.3,175,127.3,182.5,127,189z"/>
	<path class="st18" d="M189.1,235.7c-7.9-12.2-12.8-27.1-5.9-40.8c0.7-1.4,1.5-2.9,3-3.4c3.2-1.1,7.5,0.1,10.2,1.7
		c9.6,5.6,15.4,16.2,20.8,25.6c5.6,9.8,10.4,19.9,16.1,29.7c2.3,4,4.6,8,5.8,12.4c1.1,3.8,1.2,8.3-0.3,12
		c-6.3,16.3-23.6-3.7-28.9-9.7C202.4,254.6,195.3,245.3,189.1,235.7z"/>
	<g>
		<defs>
			<path id="SVGID_6_" d="M117.7,222.1c-2.3-9.6-3.4-19.4,1.7-26c2.3-3,6.5-5,9.8-6.5c6.6-2.9,13.4-6.7,20.4-7.9
				c7.5-1.3,15.7-2.1,23.2-0.2c4.7,1.2,9.1,3.4,13.3,5.8c3.7,2.1,8.2,3.8,9.9,7.7c4.3,9.3,8.1,19,11.3,28.8c2.7,8.2,5.6,16.7,1.4,25
				c-1.4,2.7-3.3,5-4.9,7.5c-1.7,2.9-2.4,5.5-2.6,8.8c-0.5,7.5-0.3,15-0.3,22.5c0,2.2,0,4.4-1,6.4c-1.9,3.8-6.9,3.9-10.6,3.9
				c-12.1,0-24.1,0-36.2-0.1c-5,0-8.9,0.6-13.6,1.6c-4,0.8-7.4-1.2-9.3-4.9c-1.8-3.5-1.9-7.6-2.1-11.5c-0.8-15.3-2.9-30.5-6.5-45.3
				C120.8,233.4,119.1,227.9,117.7,222.1z"/>
		</defs>
		<use xlink:href="#SVGID_6_"  style="overflow:visible;fill:#008282;"/>
		<clipPath id="SVGID_7_">
			<use xlink:href="#SVGID_6_"  style="overflow:visible;"/>
		</clipPath>
		<path class="st19" d="M145.6,194.1c-2.8-4.8-3.5-10.7,0.2-15.3c1.7-2.1,4.7-2.3,7.3-2.4c5.1-0.1,10.1,0.4,15.1,1.6
			c4.7,1.1,9.5,3,11.5,7.7c1.5,3.5,1,7.6-1,10.8c-1.8,2.9-4.8,5.1-8.2,5.9c-5.4,1.3-11.7,1.1-16.9-1.1
			C150.4,200,147.5,197.4,145.6,194.1z"/>
		<path class="st19" d="M113.4,266.1c0-7.4,0.1-14.7,0.1-22.1c0-2.6-1.7-18.2,2.3-18c0.4,0,0.8,0.2,1.2,0.5c2,1.4,3,3.8,3.9,6.1
			c2.9,7.1,5.3,18.4,11.4,23.4c6.2,5,15.6,7.2,23.3,8.4c8.9,1.4,18,1.5,27,2.1c5.8,0.4,12.3,1.2,16.1,5.6c2.7,3.2,4.1,7.9,5.6,11.7
			c1.3,3.4,2.3,7.4-0.3,10.4c-1.1,1.3-2.6,2.2-4.2,2.9c-5.6,2.7-11.8,4-17.9,5c-17.2,2.9-34.7,3.5-52.1,2.6
			c-3.7-0.2-7.8-0.5-10.5-3.1c-2-1.9-3-4.6-3.7-7.3C113.3,285.1,113.4,275.6,113.4,266.1z"/>
	</g>
	<path class="st20" d="M195.7,140.3c6.6,6.8,0.6,23.3-9.9,20.9c-11.3-2.6-9.6-20.1,0.6-23C190.4,137.1,193.6,138.2,195.7,140.3z"/>
	<path class="st11" d="M105.8,233c-6.6,0.8-13.5,0.3-19.4-2.8c-7.5-3.9-11.3-11.1-11.4-19.4c-0.1-6,1-12.3,4.7-17
		c3.9-5.2,10.5-8.4,13-14.4c1.6-3.9,1.2-9.2-1.9-12.3c-2-1.9-3.6-4.1-3.3-7c0.4-4.3,3.5-8.3,7-10.6c5.1-3.4,11.4-4.6,17.4-5.4
		c4-0.5,8.1-1.6,9.3-6c0.7-2.3,0.5-4.8,0.7-7.2c0.3-5.1,0.6-10.3,1.4-15.4c0.9-5.9,4.7-11.6,9-15.6c0.6-0.6,1.2-1.1,1.9-1.7
		c11-8.9,31.3-12,43.4-3.8c4.1,2.8,7,7.1,7.9,12c0.6,3.3,1.5,4,4.7,5c5.8,1.8,12.4,3.1,17.1,7.4c3.6,3.3,5.3,8.4,4.8,13.3
		c-0.6,6.2-5,9.2-8.1,14.1c-3.2,5-0.7,11.3,3,15.5c2.8,3.2,6.9,5.5,8.5,9.5c1.5,3.6,0.5,7.8-1.3,11.3c-0.7,1.4-1.6,2.8-2.2,4.2
		c-1.9,4.4-1.7,9.7,0.5,14"/>
	<path class="st21" d="M87.1,242.6c-2,3.6-4,7.3-6,11c-4,7.4-11.4,24,0.5,28.1c6,2.1,9.4,0,13.4-4.3c15-16.5,27.7-35,37.8-54.8
		c3.8-7.4,13.8-26.6,1.6-31c-3.8-1.4-8.3-1.1-11.8,0.9c-1.6,0.9-3.1,2.1-4.5,3.3c-8.8,7.8-15,17.9-20.5,28.1
		C94.1,230.1,90.6,236.3,87.1,242.6z"/>
	<path class="st12" d="M155.9,196.6c-3.6-1.2-6.6-3.4-7.7-7c-1-3.2,0.6-6.9,0.9-10.2c0.3-3.1,0.3-6.3,0.1-9.4
		c-0.2-2.9-0.5-5.9,0-8.8c0.3-1.7,1.2-1.4,2.8-2c1.7-0.7,3.5-0.7,5.4-0.7c3.7,0,13.4-0.3,15.7,3c1.1,1.5,1.1,3.4,1.2,5.2
		c0.1,2.2,0.4,4.9,0.8,8c0.2,1.3,0.1,2.7,0.3,4c0.2,1.5,0.8,2.9,1.3,4.3c1.9,5.4,0.1,10.5-5.7,13
		C166.7,197.7,160.8,198.1,155.9,196.6z"/>
	<path class="st13" d="M149.2,161.2c0.3-1.7,1.2-1.4,2.8-2c1.7-0.7,3.5-0.7,5.4-0.7c3.7,0,13.4-0.3,15.7,3c1.1,1.5,1.1,3.4,1.2,5.2
		c0.1,2.2,0.4,4.9,0.8,8c0.2,1.3,0.1,2.7,0.3,4c0.2,1.1,0.5,2.2,0.9,3.3c-3.6,1.3-7.7,1.6-11.4,0.7c-6.8-1.7-11.9-5.9-15.6-11.4
		c0-0.4,0-0.9-0.1-1.3C149,167.1,148.7,164.1,149.2,161.2z"/>
	<path class="st12" d="M143.8,140c0-5,0.7-9.7,2-13.6c5.5-16.9,26.6-21.1,39.3-8.9c14.1,13.5,8.7,45.8-6.2,57.2
		c-4,3-9.4,4.1-14.2,2.8C150,173.5,143.7,155.5,143.8,140z"/>
	<path class="st12" d="M146.5,140.4c-6.5-3.5-8.5,5.4-7.4,9.9c0.5,1.8,1.2,3.6,2.3,5.2c1.5,2,6,5.4,8.5,3.2c1.2-1,1.3-2.7,1.3-4.3
		C151.4,150.2,150.9,142.8,146.5,140.4z"/>
	<g>
		<path class="st22" d="M167.7,169.9c1.6,0,3.2-0.1,4.8-0.4l-0.3-1.9c-5.8,0.9-11.6,0-16.8-2.3c-1.4-0.6-2.6-1.3-3.6-2.1
			c-1.9-1.4-3.5-3.2-4.7-5.2l-1.7,1c1.3,2.3,3.1,4.3,5.2,5.8c1.1,0.8,2.4,1.6,4,2.3C158.6,169,163.1,169.9,167.7,169.9z"/>
	</g>
	<g>
		<path class="st22" d="M178.1,166.1c-2.4-2-7.6-1.9-9.4,0.3c-1.3,1.6-0.9,3.6,0.5,4.9c1.7,1.6,3.8,1.5,5.8,1
			C177.7,171.6,181,168.5,178.1,166.1z"/>
	</g>
	<path class="st13" d="M143.7,127.1c5.8-17.8,28-22.2,41.3-9.4c2.9,2.8,5.1,6.4,6.5,10.5c-0.3,0.5-0.6,0.9-1,1.4
		c-1.8,2.1-4.4,3.5-6.9,4.7c-7.4,3.4-15.4,5.5-23.5,7c-0.6,0.1-1.2,0.2-1.8,0.3c-2.2,0.4-4.4,1-6.4,2.1c-5.5,3.2-3.1,10.3-7.1,13.4
		c-0.4,0.3-0.7,0.5-1.1,0.6c-1.5-5.3-2.2-10.9-2.1-16.3C141.7,136.1,142.4,131.2,143.7,127.1z"/>
	<path class="st3" d="M157.8,139.5c-2.1,0.8-4.2,1.7-5.9,3.1c-4.9,4.1-1.4,10.7-4.9,14.4c-3.1,3.3-7.7-1.1-8.9-4.1
		c-2.2-5.6-2.1-11.8-1.9-17.8c0.1-3.4,0.2-6.8,1.2-10c1.1-3.5,3.2-6.6,5.7-9.3c7.2-7.8,18-11.8,28.6-11.1
		c8.2,0.5,22.6,7.4,16.2,17.9c-1.5,2.4-3.7,4.2-6.1,5.7c-6.8,4.6-14.4,7.8-22.1,10.6C158.9,139,158.4,139.3,157.8,139.5z"/>
	<path class="st20" d="M143.8,137.8c9.1,2.3,12.7,19.6,2.5,23c-11,3.7-18.7-12.2-11.5-20C137.6,137.8,140.9,137.1,143.8,137.8z"/>
	<path class="st22" d="M140.8,140c6.3,1,10.2,14.4,3.7,18.1c-7,4-13.6-8-9.4-14.9C136.7,140.6,138.8,139.7,140.8,140z"/>
	<g>
		<path class="st20" d="M139.6,139l2.4-0.3c-1.7-14.3-0.9-32.6,11.8-38.4c6-2.8,23.3-5.8,31,4.4c0.9,1,1.5,1.9,1.5,1.9
			c-4.7-14.6-27-11.6-33.5-8.6C138.7,104.6,137.8,123.9,139.6,139z"/>
	</g>
	<rect x="0.1" y="283.4" class="st15" width="349.9" height="46.1"/>
	
		<rect x="185.6" y="273.6" transform="matrix(-1 -4.495572e-11 4.495572e-11 -1 421.1729 557.0413)" class="st23" width="49.9" height="9.8"/>
	<path class="st23" d="M227,274.6l12.6-64.2c0.3-1.7,1.8-2.9,3.5-2.9h83.8c1.2,0,2.3,0.6,2.9,1.5l0,0l3.9,4.6l-3.4-0.8L317.8,276
		c-0.3,1.7-1.8,2.9-3.5,2.9h-83.8C228.3,278.9,226.5,276.8,227,274.6z"/>
	<path class="st22" d="M318.1,283.4h-83.8c-2.3,0-4-2.1-3.5-4.3l12.6-64.2c0.3-1.7,1.8-2.9,3.5-2.9h83.8c2.3,0,4,2.1,3.5,4.3
		l-12.6,64.2C321.3,282.2,319.9,283.4,318.1,283.4z"/>
	<path class="st20" d="M291.8,246.1c-0.8,4.3-4.9,7.8-9.2,7.8s-7.2-3.5-6.3-7.8c0.8-4.3,5-7.8,9.2-7.8S292.6,241.8,291.8,246.1z"/>
	<path class="st17" d="M334.3,215"/>
	<g>
		<g>
			<path class="st15" d="M51.2,245.1c-0.9-1.9-0.8-3.9-0.2-5.7c0.6-1.9,1.6-3.5,2.6-5.2c1.1-1.7,2.2-3.6,2.9-5.9
				c0.7-2.3,0.5-4.9-0.1-7c-1.4-4.4-4.2-7.7-6.1-11c-1-1.7-1.8-3.4-2.1-5.3c-0.4-1.9-0.2-3.9,0.7-5.8c-1.6,1.4-2.4,3.7-2.5,5.9
				c-0.1,2.2,0.5,4.5,1.3,6.5c1.7,4,4.2,7.3,5.2,10.8c0.6,1.7,0.7,3.4,0.3,5.1c-0.3,1.7-1.2,3.5-2.1,5.4c-0.9,1.9-1.7,4-1.9,6.2
				C49.1,241.2,49.6,243.7,51.2,245.1z"/>
		</g>
	</g>
	<path class="st21" d="M50.4,283.2L50.4,283.2c6.9,0,12.4-5.6,12.4-12.4v-23.2H37.9v23.2C37.9,277.6,43.5,283.2,50.4,283.2z"/>
	<path class="st21" d="M25.4,266.6c0,6.1,4.8,11,10.8,11c6,0,10.8-4.9,10.8-11s-4.8-11-10.8-11C30.2,255.6,25.4,260.5,25.4,266.6z
		 M29.2,266.6c0-3.9,3.1-7.1,7-7.1c3.8,0,7,3.2,7,7.1s-3.1,7.1-7,7.1C32.3,273.6,29.2,270.5,29.2,266.6z"/>
	<path class="st1" d="M59.1,269.7L59.1,269.7c0.7,0,1.3-0.6,1.3-1.3V251c0-0.7-0.6-1.3-1.3-1.3l0,0c-0.7,0-1.3,0.6-1.3,1.3v17.4
		C57.7,269.1,58.3,269.7,59.1,269.7z"/>
	<path class="st18" d="M43.7,247.5v29.4c0,3.5,2.8,6.3,6.3,6.3h-5.7c-3.5,0-6.3-2.8-6.3-6.3v-29.4H43.7z"/>
	<path class="st21" d="M145.6,268.6c-1-0.2-2-0.3-3.1-0.5c-5-0.8-9.9-1.7-14.9-2.8c-9.8-2.1-19.6-4-29.6-4.9
		c-1.1-0.1-2.1-0.2-3.2-0.3c-4.5-0.3-9.1-0.4-13.2,1.7c-4.1,2.1-7.3,7.2-6.3,12c0.7,3.4,3.3,6,6.2,7.3c2.9,1.3,6.1,1.5,9.2,1.7
		c10.2,0.7,20.3,1.4,30.5,2.1c5,0.3,10.1,0.7,15.1,1c4.8,0.3,9.7,1,14.5,1c2,0,4.3-0.4,6-1.7c2.4-1.9,3.8-5.9,4-9.1
		c0.1-1.6-0.2-3.6-1.4-4.6c-0.7-0.5-1.5-0.7-2.3-0.9C153.3,270,149.4,269.3,145.6,268.6z"/>
	<path class="st12" d="M157,284.1c2.5,0.5,4.4,2.7,6.8,3.4c1.7,0.5,3.6,0.2,5.3-0.4c1.5-0.6,3.1-0.9,4.7-1.4c1.2-0.4,2.9-1.2,4.2-1
		c3.5,0.7,6.9,3.2,10.1,4.8c0.7,0.4,1.5,0.7,2.3,0.6c0.8-0.1,1.4-1.1,1-1.8c0.9,0.8,2.1,2.5,3.6,1.9c0.6-0.3,1-1.1,0.6-1.6
		c0.5,0.6,1,1.1,1.7,1.4c0.7,0.3,1.6,0.2,2-0.5c0.2-0.3,0.3-0.7,0.3-1c0.1-1.2-0.3-2.4-0.8-3.5c-2.5-5.4-8.1-9.4-12.9-12.6
		c-0.8-0.6-1.7-1.1-2.7-1.4c-0.9-0.3-1.8-0.3-2.7-0.3c-5.9,0-11.8,0.9-17.4,2.8c-1.2,0.4-2.5,0.1-3.8-0.2c-0.9-0.2-1.8-0.3-2.7-0.1
		c-1,0.3-1.7,1.1-2.3,1.9c-1.1,1.5-1.9,3.5-1.8,5.4c0.1,1.5,0.2,3,1.9,3.3c0.7,0.1,1.4,0,2.1,0.1C156.6,284,156.8,284,157,284.1z"/>
</g>
</svg>
